<svg xmlns="http://www.w3.org/2000/svg" width="333" height="82" fill="none">
  <rect width="82" height="82" fill="#F4F1E9" rx="16"/>
  <path fill="#0E5747" d="M39.385 29.498c-.182.198-.35.85-.389 1.516a9.92 9.92 0 0 1-.071.73c-.024.152-.064.493-.088.755-.031.469-.08.905-.159 1.628-.023.198-.055.5-.079.675-.016.175-.055.516-.08.754a717.59 717.59 0 0 1-.476 4.725c-.023.214-.055.556-.063.754-.008.199-.04.397-.072.445-.032.047-.071.357-.095.69-.016.334-.056.636-.071.667-.024.04-.064.39-.096.779a66.781 66.781 0 0 1-.325 3.295 28.84 28.84 0 0 0-.08.913 7.177 7.177 0 0 1-.08.675c-.023.063-.055.317-.07.556-.016.238-.08.984-.151 1.651-.135 1.366-.112 1.501.325 1.771.278.175.556.206 1.819.238.492.016.714-.016.952-.135l.31-.15-.024-5.202c-.016-4.327-.071-10.695-.095-10.997l.016-.977c.016-.5.008-.913-.008-.936-.048-.048-.032-1.39.016-1.438.024-.016.016-.135-.016-.246a1.92 1.92 0 0 1-.048-.492c.032-.564.056-1.152.04-1.191a11.3 11.3 0 0 1-.04-.651c-.024-.691-.159-.985-.444-.985-.104 0-.263.08-.358.183ZM18.304 30.649c-.056.119-.048.468.016.5.04.032.071.135.071.238 0 .104.04.215.088.239.047.031.07.158.055.285-.008.135.016.262.064.294a.857.857 0 0 1 .182.23c.064.12.135.16.23.127.12-.047.12-.04.032.08-.08.095-.087.167-.024.27.048.08.088.095.088.04 0-.175.143-.104.19.11.04.152.096.2.207.168.103-.024.246.071.484.349.23.27.365.365.421.31.12-.12.23-.096.183.031-.056.151.166.334.357.302.08-.016.143.008.143.056 0 .119.238.325.373.325.087 0 .111-.047.072-.198-.032-.111-.032-.199 0-.199.07 0 .34.342.349.437.008.127.54.444.595.357.072-.119.199-.095.199.032 0 .064.04.143.095.175.048.031.064.023.032-.032-.087-.143.111-.199.254-.072.207.167.381.215.484.112.072-.072.111-.072.16.007.087.143.642.191.642.056 0-.119.223-.111.302.016.072.111 1.286.08 1.358-.04.024-.04.183-.063.35-.055.198.016.317-.008.34-.08.032-.08.096-.087.279-.023.206.07.27.055.436-.104.16-.143.215-.166.262-.08.048.072.088.08.12.017.031-.048.222-.127.412-.175.262-.071.382-.143.437-.278.032-.103.127-.19.207-.19.182-.008.555-.286.476-.366-.032-.031-.056-.016-.056.032 0 .056-.031.095-.08.095-.039 0-.079-.055-.079-.119 0-.071.072-.119.199-.119.111 0 .199.032.199.08 0 .04.04.079.079.079.048 0 .08-.072.08-.159 0-.087.031-.159.07-.159.049 0 .072-.095.064-.214-.008-.15.024-.222.127-.246.12-.024.143 0 .096.135-.088.286.087.182.23-.135.071-.159.254-.413.405-.556.262-.262.262-.27.111-.42-.119-.12-.135-.191-.071-.31.142-.27.079-.326-.135-.12-.12.111-.247.207-.278.207-.143.024-.207.055-.723.302-.302.15-.595.349-.667.46-.103.159-.135.167-.214.064-.08-.104-.135-.096-.469.079-.206.111-.5.206-.65.214-.152.008-.279.04-.279.072 0 .095-.262.159-.333.087-.04-.04-.207-.032-.39.016-.238.064-.357.056-.468-.016-.119-.071-.206-.071-.373 0-.318.127-1.032.135-1.453.024a2.522 2.522 0 0 0-.73-.08c-.223.009-.39-.023-.413-.079-.016-.055-.199-.095-.397-.095-.199-.008-.437-.064-.54-.135a.634.634 0 0 0-.302-.127c-.064 0-.167-.072-.223-.159-.079-.127-.134-.143-.293-.08-.151.056-.199.048-.199-.039 0-.143-.294-.302-.437-.246-.063.024-.174-.04-.254-.143-.079-.095-.182-.167-.23-.15-.087.03-.706-.446-.85-.644-.04-.048-.04 0-.015.103.04.127.031.167-.032.135-.048-.032-.087-.127-.087-.214 0-.111-.04-.151-.135-.135a.275.275 0 0 1-.247-.096c-.095-.103-.103-.103-.063.016.024.08.008.16-.04.183-.04.032-.143-.111-.23-.31-.135-.317-.215-.42-.246-.35Zm.564 1.016c0 .16-.16.072-.278-.159-.167-.317-.151-.341.079-.11.111.11.198.23.198.27Zm.397.167c0 .04-.056.072-.12.072a.122.122 0 0 1-.119-.12c0-.071.048-.095.12-.071.063.032.119.08.119.119Zm.238.032c0 .11-.032.198-.08.198-.087 0-.11-.262-.023-.341.087-.087.103-.064.103.143Zm11.116.476c0 .04-.04.024-.08-.04a.54.54 0 0 1-.079-.198c0-.048.04-.024.08.04.04.063.08.15.08.198Zm-.238-.167c0 .024-.032.064-.08.088-.04.024-.079.008-.079-.032 0-.048.04-.087.08-.087.047 0 .079.016.079.031Zm-10.553.564c.008.135-.143.135-.198 0-.032-.087-.008-.119.08-.103.063.016.118.056.118.103Zm.31.199c0 .04-.016.08-.032.08-.024 0-.063-.04-.087-.08-.024-.048-.008-.08.032-.08.047 0 .087.032.087.08Zm8.893 1.04c0 .04-.055.071-.119.071-.071 0-.095-.047-.071-.119.047-.119.19-.087.19.048Zm-1.056.484c-.024.064-.048.04-.048-.047-.008-.088.016-.135.04-.104.024.024.032.096.008.151Zm-4.423.302a.08.08 0 0 1-.08.08c-.039 0-.079-.04-.079-.08 0-.048.04-.08.08-.08.048 0 .08.032.08.08ZM49.374 31.785c-.008.238.008.27.167.254.135-.016.175.023.175.182 0 .111.04.223.095.262a.14.14 0 0 1 .056.167c-.024.064.031.246.119.413.095.167.166.373.166.444 0 .08.04.144.088.144.047 0 .071-.056.04-.12-.024-.063-.017-.119.023-.119.088 0 .254.199.278.334.087.436.151.54.254.452.087-.071.127-.047.183.104.04.103.19.23.35.293.158.064.3.175.317.262.024.08.103.167.19.199.08.024.27.15.421.278.151.127.318.254.358.294.047.031.158.04.238.008.087-.032.182-.016.222.031.04.056.111.024.215-.11l.158-.2v.183c0 .127.056.207.167.23.087.024.143.088.12.143-.017.056.047.175.142.27.135.127.199.143.27.072.056-.056.095-.135.095-.183 0-.04-.032-.024-.08.04-.063.095-.078.095-.126-.024-.072-.182 0-.238.206-.175.143.048.167.096.127.286-.047.27.104.326.167.064.048-.167.056-.167.159-.024.087.127.135.135.262.048.143-.088.159-.08.159.103 0 .175.032.19.301.175.16-.008.342-.048.397-.08.088-.063.127-.016.104.12-.016.11.135.063.182-.056.056-.16.207-.151.207.008 0 .087.047.11.182.071a3.25 3.25 0 0 1 .318-.087c.087-.032.135 0 .135.08 0 .102.024.11.15.03.12-.07.184-.07.27 0 .096.08.183.072.445-.03.183-.072.398-.112.477-.088.087.024.23-.016.318-.08.095-.063.198-.087.246-.063.11.071.198-.35.087-.46-.048-.048-.087-.12-.087-.167 0-.048.04-.04.095.016a.374.374 0 0 0 .238.095c.08 0 .143.055.143.119 0 .063-.056.119-.119.119a.122.122 0 0 0-.12.12c0 .15.128.158.183.007.024-.063.128-.127.23-.143.112-.016.183-.071.175-.159-.008-.095.048-.127.207-.127a.665.665 0 0 0 .31-.047c.055-.04.087.008.087.11 0 .096.04.144.08.12.047-.032.055-.095.007-.183a.26.26 0 0 1 .016-.262c.08-.127.095-.127.175-.016.119.16.278.072.278-.143 0-.166.127-.206.182-.055.056.143.215-.08.215-.302 0-.214.357-.397.429-.222.04.103.079.103.293-.008.135-.072.223-.151.199-.175-.024-.032.008-.135.071-.238.072-.103.088-.183.04-.183-.04 0-.087-.08-.087-.182-.008-.127-.016-.143-.048-.04-.016.08-.071.143-.111.143-.12 0-.08-.35.056-.54.119-.175.119-.183-.016-.159-.104.016-.143-.016-.127-.119.015-.071-.016-.135-.064-.135-.04 0-.08.048-.08.111 0 .103-.404.31-.698.358-.04 0-.175.095-.294.198-.127.111-.262.175-.31.15-.182-.118-.452-.063-.563.112-.072.103-.183.183-.247.183-.11 0-.11-.024-.031-.12.063-.07.071-.118.016-.118a.162.162 0 0 0-.128.07c-.031.04-.19.096-.365.128-.174.032-.341.087-.365.135-.024.04-.143.063-.254.056a.665.665 0 0 0-.326.04c-.063.039-.127.031-.166-.04-.056-.08-.088-.08-.19 0-.096.079-.16.079-.231.023-.072-.063-.31-.063-.747-.023-.746.079-1.183.055-1.326-.064-.055-.048-.285-.071-.508-.055-.31.023-.437 0-.532-.112a.333.333 0 0 0-.317-.095c-.12.016-.199 0-.199-.056 0-.047-.056-.087-.119-.087-.127 0-.516-.222-.603-.35a.1.1 0 0 0-.127-.023c-.04.024-.175-.024-.31-.111-.127-.08-.31-.151-.405-.151-.111 0-.183-.048-.183-.12 0-.063-.15-.19-.333-.277-.524-.254-.691-.358-.89-.548-.095-.087-.214-.167-.254-.167-.04 0-.119-.071-.174-.159-.056-.087-.135-.158-.183-.158-.04 0-.056.031-.032.079.024.04-.008.08-.071.08-.159 0-.246-.16-.127-.239.071-.047.055-.087-.064-.15-.23-.12-.222-.12-.19.19.023.167.08.278.143.278.063 0 .11.032.11.08 0 .126-.063.094-.404-.175-.167-.135-.31-.318-.31-.397 0-.27-.135-.143-.143.135Zm1.533.674c.024.04-.008.08-.08.08-.071 0-.103-.04-.08-.08.025-.047.064-.079.08-.079s.056.032.08.08Zm-.381.286c-.072.072-.223-.047-.167-.143.032-.047.08-.047.135.008.047.048.063.104.032.135Zm.262.16c0 .063-.04.094-.08.07-.047-.031-.063-.087-.04-.127.072-.11.12-.087.12.056Zm-.008.547c0 .04-.048.008-.111-.072-.064-.079-.088-.19-.064-.23.048-.08.167.127.175.302Zm.452.016c-.08.08-.15-.04-.08-.143.048-.087.064-.087.096 0 .016.055.008.119-.016.143Zm10.648.556c-.024.08-.04.015-.04-.135 0-.151.016-.215.04-.143a.815.815 0 0 1 0 .278Zm-.214-.016c0 .063-.056.119-.12.119-.07 0-.095-.048-.07-.12.031-.063.079-.118.118-.118.04 0 .072.055.072.119Zm-9.767.524c0 .04-.055.071-.119.071-.119 0-.159-.095-.071-.182.063-.064.19.008.19.11Zm9.529-.087a.08.08 0 0 1-.08.079c-.04 0-.08-.04-.08-.08 0-.047.04-.079.08-.079.048 0 .08.032.08.08Zm.635.166c0 .04-.056.072-.12.072-.118 0-.158-.096-.07-.183.063-.063.19.008.19.111Zm-1.827-.055c0 .024-.031.063-.079.087-.04.024-.08.008-.08-.032 0-.047.04-.087.08-.087.048 0 .08.016.08.032Zm.318.206c0 .04-.04.08-.087.08-.04 0-.056-.04-.032-.08.024-.047.064-.08.087-.08.016 0 .032.032.032.08Zm.397.318a.08.08 0 0 1-.08.08c-.039 0-.079-.04-.079-.08 0-.048.04-.08.08-.08.047 0 .08.032.08.08Zm-4.542.468c.024.064-.008.096-.071.072a.227.227 0 0 1-.135-.135c-.024-.064.008-.096.071-.072.056.016.12.08.135.135Zm2.478.516c0 .056-.024.127-.056.151-.056.064-.262-.198-.214-.278.055-.087.27.016.27.127Zm-2.144.08c0 .023-.032.063-.08.087-.04.024-.079.008-.079-.032 0-.047.04-.087.08-.087.047 0 .079.016.079.032Zm-.993.135c-.032.04-.143.071-.262.071-.135 0-.175-.024-.119-.063.143-.088.429-.096.381-.008ZM30.977 31.665c-.024.04-.008.08.031.08.048 0 .088-.04.088-.08 0-.047-.016-.08-.032-.08-.024 0-.064.033-.087.08ZM62.436 33.142c-.032.032-.056.111-.056.183 0 .087.024.095.088.031.047-.047.08-.127.055-.182-.016-.048-.055-.064-.087-.032ZM62.54 33.92c0 .23.15.35.245.199.096-.159.088-.183-.087-.294-.143-.087-.159-.08-.159.095ZM19.844 37.692c-.047.19-.111.207-.254.064-.087-.072-.111-.072-.143 0-.024.071-.08.079-.182.023-.27-.143-.461.056-.405.413 0 .04-.048.064-.112.064-.063 0-.119-.04-.119-.08 0-.047-.087-.063-.198-.031-.151.04-.199.016-.199-.08 0-.08.072-.127.183-.127.159-.008.167-.008.024-.087-.088-.056-.334-.072-.643-.032-.398.04-.509.08-.54.207-.04.158-.413.341-.54.27-.04-.032-.048.008-.024.071.032.087 0 .127-.12.127-.095 0-.166-.048-.166-.119 0-.103-.016-.103-.111-.024-.08.072-.088.12-.016.159.055.04.032.064-.056.064-.182 0-.27-.23-.127-.326.08-.048.064-.072-.08-.072-.15 0-.174.032-.142.167s.024.151-.048.08c-.11-.111-.214-.111-.214-.008 0 .04-.072.15-.159.238-.135.135-.19.143-.325.071-.088-.047-.183-.063-.215-.04-.024.025 0 .048.056.048.055 0 .071.04.047.08-.031.047-.119.063-.19.04-.151-.048-.516.222-.429.31.032.03 0 .03-.071.007-.088-.04-.151.024-.223.214l-.095.262-.095-.222c-.095-.214-.239-.23-.16-.016.056.135-.261.238-.396.127-.135-.11-.341.135-.334.397.008.199-.063.223-.428.12-.127-.04-.16-.032-.096.015.12.08.04.358-.087.278-.048-.032-.064.024-.032.143.056.222-.047.46-.135.318-.087-.127-.365-.103-.365.032 0 .063-.056.119-.12.119-.134 0-.15.095-.039.206.056.056.024.143-.095.27-.167.175-.175.175-.23.032-.056-.143-.064-.143-.072.008a.68.68 0 0 0-.008.214c0 .04-.04.064-.103.064-.127 0-.222.23-.389.953-.072.285-.183.746-.262 1.024-.103.405-.111.54-.04.667.064.095.08.317.056.595-.024.254-.016.366.016.262l.055-.19.104.214c.119.262.127.39.015.326-.047-.032-.079.087-.079.294 0 .261.024.317.087.222.072-.095.08-.088.048.055-.048.215.143.413.214.223.064-.167.175-.088.223.158.024.104.008.175-.024.151-.04-.023-.072.056-.072.167 0 .175.032.207.191.183.23-.032.762.38.762.595 0 .08.04.12.08.096.047-.024.079-.016.079.015 0 .04-.032.112-.08.167-.055.072-.055.072.017.016a.38.38 0 0 1 .222-.08c.103 0 .103.017 0 .088-.095.063-.088.072.047.04.191-.056.477.206.39.35-.04.063.031.07.238.03.294-.055.301-.047.254.144-.064.254 0 .317.206.214.111-.063.175-.063.223.016.047.08.087.08.19-.008.111-.087.143-.08.254.072.064.103.143.15.175.103.08-.127.39-.19.453-.088.04.072.016.08-.096.04-.11-.04-.127-.032-.063.032.063.063.166.047.389-.056.286-.135.294-.135.437.032.15.19.54.286.698.159.064-.056.096-.04.096.04 0 .079.063.103.238.079.135-.016.238-.063.238-.095 0-.04.072-.048.159-.024.087.024.159.111.159.19 0 .088.04.151.079.151.048 0 .08-.04.08-.095 0-.071.023-.071.095 0 .143.143.246.12.206-.048a.223.223 0 0 1 .103-.246c.096-.055.151-.055.151-.008 0 .111.27.096.39-.023.102-.104 1.198-.12 1.476-.016.111.04.127.031.056-.024-.088-.056-.072-.08.047-.111.112-.032.183.008.247.142.087.199.158.215.484.112.15-.048.167-.064.048-.072-.135-.008-.12-.127.016-.127a.447.447 0 0 0 .166-.071c.064-.04.127-.032.167.032.08.119.167.119.246-.016.064-.088.08-.088.143.008.048.071.087.079.12.015.03-.047.142-.087.245-.087a.533.533 0 0 0 .31-.119c.064-.064.135-.12.159-.12.024 0 .119-.07.214-.166.167-.167.612-.19.723-.032.04.056.063.048.063-.008 0-.055.135-.079.342-.071.254.024.42-.032.698-.206.199-.127.437-.23.532-.23.096 0 .278-.104.398-.239.127-.127.253-.214.277-.183.032.024.056.008.056-.04 0-.055-.032-.095-.08-.095-.15 0-.079-.166.112-.238a.626.626 0 0 0 .246-.159c.024-.04.08-.063.119-.04.04.025.087.009.12-.039.023-.04.007-.08-.033-.08-.047 0-.087-.04-.087-.079 0-.047.087-.063.206-.032.199.048.207.04.175-.198-.032-.246.048-.341.12-.15.063.142.221-.096.174-.247-.032-.072 0-.087.08-.056.07.024.118 0 .118-.071 0-.064.064-.143.143-.19.12-.072.127-.088.008-.183-.103-.088-.11-.199-.071-.62.055-.5.111-.325.087.278-.008.23 0 .23.072.048.047-.103.087-.413.087-.683.008-.453.024-.492.159-.46.143.04.15.015.103-.286-.04-.262-.032-.326.071-.326.104 0 .088-.063-.071-.381-.206-.405-.238-.572-.103-.572.04 0 .055.032.031.08-.023.04 0 .079.064.079.08 0 .103-.055.08-.143-.024-.111-.088-.143-.247-.111-.166.032-.198.016-.119-.064.048-.055.072-.15.04-.222-.032-.087-.008-.111.087-.071.19.071.373-.016.373-.175 0-.103-.015-.103-.071-.016-.04.056-.087.072-.103.04-.024-.04-.024-.024-.016.024.016.055 0 .103-.032.103-.071 0-.206-.318-.341-.778-.056-.19-.167-.382-.247-.421-.079-.04-.142-.048-.142-.016s-.056-.008-.128-.095c-.063-.088-.158-.16-.206-.16-.047 0-.111-.055-.15-.118-.167-.326-.31-.715-.31-.834 0-.111-.024-.12-.112-.048-.15.127-.476-.031-.389-.174.032-.064.008-.064-.071.008-.111.087-.127.079-.111-.096.023-.206-.056-.278-.151-.127-.064.104-.278.104-.278-.008 0-.047.08-.15.175-.222.119-.095.143-.159.079-.199-.056-.031-.095-.007-.095.064 0 .143-.207.175-.254.048-.032-.103-.286-.127-.477-.04-.103.04-.143.024-.143-.072 0-.07-.063-.127-.15-.127-.096 0-.167-.071-.2-.198-.063-.238-.206-.262-.206-.04 0 .19-.063.199-.254.024-.079-.071-.142-.095-.142-.056 0 .04-.151.072-.342.072-.254 0-.326-.032-.31-.12.024-.094.008-.102-.071-.023-.135.135-.35.127-.46-.008-.072-.087-.064-.135.031-.23.111-.111.103-.127-.04-.175-.087-.024-.158-.087-.158-.127 0-.04-.04-.071-.088-.071-.047 0-.071.047-.047.095.047.143-.096.397-.191.333-.048-.023-.064-.103-.032-.166.032-.104.024-.111-.08-.024-.094.08-.118.08-.126-.008 0-.064-.032-.032-.072.063-.047.12-.119.16-.23.127-.095-.023-.167-.095-.167-.15 0-.167-.143-.135-.198.047-.024.088-.088.16-.127.16-.048 0-.056-.04-.032-.08.024-.048.008-.08-.032-.08a.088.088 0 0 1-.087-.087c0-.048-.056-.135-.127-.206-.111-.112-.127-.112-.167.047Zm-1.81.469c-.167.04-.358-.04-.358-.135 0-.135.278-.143.382-.016.087.103.079.135-.024.15Zm8.774 3.192c0 .04-.016.079-.032.079-.024 0-.064-.04-.087-.08-.024-.047-.008-.079.032-.079.047 0 .087.032.087.08Zm.055 2.795c-.023.055-.04.015-.04-.096 0-.11.017-.15.04-.103a.419.419 0 0 1 0 .199Zm-.103 1.5c-.024.04-.071.056-.111.032-.032-.024-.08.008-.103.056-.016.055-.064.08-.095.047-.096-.087.11-.301.246-.246.055.024.087.072.063.111Zm-15.833.151c0 .04-.04.08-.087.08-.04 0-.056-.04-.032-.08.024-.047.064-.08.087-.08.016 0 .032.032.032.08Zm.12.318c.023.04.007.08-.033.08-.047 0-.087-.04-.087-.08 0-.048.016-.08.032-.08.024 0 .064.032.087.08Z"/>
  <path fill="#0E5747" d="M20.773 37.692c0 .04.04.103.08.127.047.024.079.016.079-.032a.162.162 0 0 0-.08-.127c-.04-.024-.079-.016-.079.032ZM22.02 37.859c.024.087.071.135.111.111.111-.064.08-.27-.04-.27-.071 0-.095.056-.071.159ZM22.965 38.057c.032.064.063.12.08.12.015 0 .031-.056.031-.12 0-.063-.032-.119-.08-.119-.04 0-.055.056-.031.12ZM24.108 38.454c.056.072.12.103.135.088.056-.056-.055-.207-.15-.207-.048 0-.048.048.015.12ZM25.617 39.217c0 .04.04.055.08.031.047-.023.079-.063.079-.087 0-.016-.032-.032-.08-.032-.04 0-.08.04-.08.088ZM25.99 39.756c-.04.175.008.262.111.199.096-.056.096-.35 0-.35-.04 0-.087.072-.111.151ZM26.331 40.233c0 .199.048.214.104.048.031-.064.015-.135-.024-.16-.048-.031-.08.025-.08.112ZM62.785 40.44c.016.436-.008.516-.127.516-.103 0-.127-.04-.119-.199.008-.024-.047-.103-.119-.167-.064-.071-.095-.159-.071-.206.031-.056.015-.064-.032-.032-.056.032-.096.143-.096.254 0 .12-.047.19-.127.19-.063 0-.095-.039-.071-.079.024-.047-.024-.08-.12-.08-.094 0-.15.033-.118.072.024.048-.095.072-.278.064-.183-.008-.318-.048-.318-.103 0-.048-.063-.143-.135-.199-.135-.103-.135-.103-.023.04.11.143.103.15-.223.111-.206-.032-.318-.016-.286.032.048.071-.23.055-.5-.024-.048-.016-.15.04-.214.127-.111.143-.12.143-.127.016 0-.246-.151-.143-.207.143-.032.167-.095.278-.167.278-.063 0-.087-.04-.055-.096.04-.063.016-.071-.08-.04-.095.04-.15 0-.206-.126-.04-.096-.072-.127-.072-.08-.007.056-.063.104-.127.104-.063 0-.119.071-.119.158 0 .167-.119.215-.198.072-.032-.048-.151-.056-.286-.032-.175.04-.23.024-.23-.071 0-.072.04-.127.08-.127.047 0 .079-.032.079-.072 0-.095-.302-.016-.374.095-.031.048-.008.056.056.016.08-.047.095-.031.056.072a.941.941 0 0 0-.056.174c0 .024-.072 0-.159-.047-.087-.048-.159-.056-.159-.016s-.08.071-.174.063c-.27-.023-.54.183-.54.405 0 .135.032.175.103.135.056-.04.048 0-.024.088-.111.135-.119.127-.159-.12-.04-.238-.238-.444-.238-.246 0 .048.04.088.08.088.047 0 .079.095.079.214 0 .159-.024.19-.072.111-.04-.055-.11-.08-.166-.047-.072.047-.072.071.008.127.079.047.079.071.016.071a.208.208 0 0 1-.143-.071c-.024-.04-.143-.064-.262-.048a4.2 4.2 0 0 1-.278.032c-.04.008-.04.04-.016.087.024.04.008.08-.032.08-.048 0-.087.055-.087.119 0 .143-.246.159-.382.023-.07-.07-.095-.055-.095.104a.392.392 0 0 1-.159.294c-.127.079-.158.079-.158 0 0-.072-.024-.072-.072.008-.047.07-.047.174 0 .27.064.11.103.127.199.047.08-.063.11-.063.11 0 0 .08-.11.12-.27.095-.039-.008-.102.032-.134.088-.048.08-.087.08-.159.008-.08-.08-.127-.048-.246.135-.08.135-.143.293-.143.349 0 .064-.032.127-.08.143-.04.008-.079.135-.095.278-.008.135-.047.23-.08.214-.03-.024-.063 0-.063.048 0 .056-.047.08-.103.056-.08-.032-.095.023-.071.19a.466.466 0 0 1-.104.39c-.079.087-.119.158-.079.158.032 0 .016.048-.032.103a.937.937 0 0 0-.119.381c-.024.151-.04.302-.047.35-.008.04-.04.008-.08-.08-.063-.127-.071-.087-.063.16 0 .174-.024.38-.056.452-.032.08-.016.254.032.389.111.325.119.31-.111.31-.199 0-.262.11-.12.198.04.024.056.095.024.159-.031.087-.008.103.088.071.071-.024.103-.08.08-.119-.025-.04-.009-.071.023-.071.103 0 .35.31.333.42a3.07 3.07 0 0 0 0 .39c.008.262.032.301.199.301.159 0 .206.072.318.397.071.223.11.437.079.485-.024.047.032.055.167.023.15-.04.206-.023.198.056a.998.998 0 0 0 0 .31c.008.182.016.182.08.04.047-.104.071-.12.071-.04.008.103.016.103.087 0 .064-.096.08-.096.128.024a.608.608 0 0 1 .007.293c-.023.088-.008.143.032.112.04-.024.072-.143.072-.278 0-.263.198-.318.349-.104.063.08.214.127.413.127.167 0 .27.016.222.04-.103.032-.063.572.056.69.047.048.071.048.071-.007 0-.048.072-.072.175-.04.135.032.159.016.12-.087-.033-.095-.009-.135.07-.135.096 0 .12.063.096.27-.024.222 0 .286.127.318.182.047.35-.064.222-.143-.047-.024-.063-.12-.04-.215.04-.135.08-.15.255-.103.11.032.285.064.38.071.104.008.207.032.231.064.032.024.15.024.278 0 .175-.032.27 0 .373.111.111.135.15.143.238.056.056-.064.08-.151.056-.19-.024-.048 0-.08.055-.08.135 0 .374.158.247.158-.048 0-.112.072-.143.151-.064.223-.294.286-.413.12-.096-.136-.103-.128-.103.023 0 .096-.032.199-.08.223-.095.063-.103.357-.008.357.04 0 .088-.095.111-.222.032-.16.096-.215.246-.223.112-.008.191.016.167.048-.024.032.016.08.08.111.103.04.15-.04.135-.198-.016-.08.5-.16.65-.104.072.024.128.135.128.246 0 .144.032.191.119.151.08-.023.159.04.246.215.12.246.12.254-.024.08l-.143-.183-.008.23c-.008.222 0 .222.223.15.119-.039.246-.11.27-.15.023-.048.087-.04.159.016.087.071.135.071.23-.008.15-.127.357-.048.357.135 0 .087.024.11.064.055a.398.398 0 0 1 .182-.127c.103-.04.127-.016.095.104-.023.079-.079.15-.127.15-.04 0-.015.072.064.16.183.206.246.198.318-.025.047-.158.055-.15.135.104.087.277.087.277.15.079.064-.183.112-.199.413-.183.326.016.326.016.072-.047-.318-.088-.35-.111-.286-.27.071-.199.27-.23.27-.048 0 .087.032.135.08.111.047-.031.134-.008.198.04.095.08.119.08.119 0 0-.072.08-.087.238-.048.167.032.23.016.19-.04-.031-.055.025-.07.136-.055.15.016.19.072.198.262 0 .127.008.294.016.357.032.23.167-.103.159-.373-.016-.341.016-.357.286-.214.294.15.333.103.15-.175-.142-.222-.142-.222.017-.159.34.143.54.151.61.016.104-.175.2-.159.255.048.048.174.056.174.159.04.071-.096.127-.112.166-.064.08.143.215.095.167-.056-.04-.127.008-.134.493-.127.293.016.667-.016.833-.055.246-.064.294-.103.254-.238-.055-.175.056-.199.215-.048.143.143.38.222.38.135 0-.048-.055-.08-.118-.08-.064 0-.12-.07-.12-.158s.024-.151.064-.135c.103.032.493-.318.493-.453 0-.159.206-.167.27-.008.023.064.095.12.158.12.072 0 .103-.048.08-.112-.024-.071.008-.103.103-.103.08.008.143-.04.143-.103a.095.095 0 0 0-.12-.096c-.087.024-.094 0-.031-.063.08-.08.238-.135.46-.151.032-.008.048-.063.016-.127-.023-.063 0-.111.056-.095.056.008.087-.056.072-.143-.016-.096 0-.127.04-.064.047.064.134.064.333-.024.15-.063.246-.134.222-.158-.024-.024-.12-.008-.207.047-.11.056-.166.056-.166 0 0-.04.04-.08.087-.08.048 0 .072-.07.048-.158-.048-.183-.024-.19.19-.08.183.104.199.024.016-.174-.11-.127-.119-.143 0-.143.072 0 .143.032.167.072.08.127.31.04.334-.112.015-.079.04-.222.063-.31a.576.576 0 0 0 .024-.206c-.032-.08.357-.556.445-.548.27.032.317-.008.166-.127-.143-.11-.143-.127-.016-.222a.625.625 0 0 0 .183-.318c.032-.119.087-.23.12-.254.03-.016.047-.135.03-.254-.007-.119.017-.246.072-.278.088-.055.112-1.024.016-1.175-.024-.04-.008-.198.048-.341.08-.223.071-.302-.056-.54-.15-.294-.159-.318-.174-.651-.008-.127-.048-.207-.08-.183-.04.024-.063.15-.055.278.008.135-.024.23-.072.222-.048-.008-.095.04-.095.104-.008.063-.016.15-.024.182 0 .04-.056.016-.111-.04-.111-.11-.143-.246-.135-.65 0-.136-.024-.207-.056-.175a.259.259 0 0 0-.063.15c0 .191-.16.151-.294-.071-.23-.381-.246-.429-.143-.548.072-.08.072-.119.008-.119-.048 0-.087.032-.087.08 0 .04-.056.079-.12.079-.063 0-.119-.04-.119-.08 0-.047.056-.103.12-.127.15-.063.158-.27.007-.27-.063 0-.166.056-.23.12-.087.079-.135.087-.15.023-.04-.11-.382-.166-.382-.063 0 .087-.262.111-.341.024-.032-.024 0-.135.063-.239.08-.119.088-.182.032-.182-.048 0-.071-.056-.048-.12.072-.182-.087-.222-.182-.039-.111.206-.365.206-.421-.008-.032-.127-.08-.15-.222-.111-.151.047-.167.032-.135-.151.031-.135.008-.206-.064-.206-.143 0-.214.135-.095.174.055.024.04.056-.048.088-.103.04-.15.008-.183-.112-.031-.11-.063-.135-.103-.063-.103.159-.31.024-.27-.183.016-.103.016-.135-.016-.087-.055.119-.27.135-.27.024 0-.04.064-.111.143-.151.112-.072.104-.08-.079-.087-.159 0-.206.031-.175.119.056.135-.031.15-.198.047-.056-.04-.215-.04-.334-.008-.198.064-.246.04-.349-.143-.064-.119-.111-.166-.12-.119 0 .143-.158.127-.158-.008 0-.071-.056-.095-.159-.071-.087.024-.143.071-.119.103.024.04.008.088-.04.12-.047.031-.103-.056-.127-.191-.04-.167-.095-.246-.198-.246-.088 0-.143.047-.127.095.016.119-.96.167-1.104.047-.103-.079-.365 0-.31.096.024.04.008.087-.031.11-.096.064-.318-.205-.405-.475l-.072-.23v.237Zm-4.692.905a.151.151 0 0 1-.08.127c-.04.023-.08-.008-.08-.072 0-.071.04-.127.08-.127.048 0 .08.032.08.072Zm10.084 1.04c0 .04-.056.08-.127.08-.064 0-.096-.04-.072-.08a.151.151 0 0 1 .127-.08c.04 0 .072.032.072.08Zm1.27.437c0 .063-.032.119-.08.119-.039 0-.079-.056-.079-.12 0-.063.04-.119.08-.119.047 0 .08.056.08.12Zm.358.198c.023.04-.008.08-.08.08-.071 0-.103-.04-.08-.08.025-.048.064-.08.08-.08s.056.032.08.08Zm.754 1.199c0 .04-.032.072-.08.072-.04 0-.079-.056-.079-.128 0-.063.04-.095.08-.071a.15.15 0 0 1 .079.127Zm.794.278c0 .135-.175.111-.222-.032-.016-.055.023-.095.095-.095.071 0 .127.056.127.127Zm-17.786.984c0 .04-.016.08-.032.08-.024 0-.064-.04-.087-.08-.024-.047-.008-.079.031-.079.048 0 .088.032.088.08Zm-.215.556c-.024.096-.063.151-.087.127-.04-.047.04-.285.095-.285.016 0 .016.071-.008.158Zm-.206.89c-.024.063-.048.04-.048-.048-.008-.087.016-.135.04-.103.024.024.032.095.008.15Zm6.265 3.612a.744.744 0 0 0 .063.255c.04.055-.008.087-.103.087-.135 0-.167-.048-.167-.286 0-.302.19-.357.207-.056Zm.54.143c-.032.064-.064.12-.08.12s-.032-.056-.032-.12c0-.063.032-.119.08-.119.04 0 .055.056.032.12Zm7.416-.015c.047-.024.095 0 .095.055 0 .048-.032.064-.08.04-.047-.024-.079.032-.079.135l-.008.183-.15-.191c-.088-.103-.16-.135-.16-.08 0 .056-.015.08-.039.056s-.024-.095.008-.167c.032-.095.087-.11.175-.063.079.032.182.047.238.032Zm-1.81.214c0 .04-.04.08-.088.08-.04 0-.055-.04-.032-.08.024-.048.064-.08.088-.08.016 0 .031.032.031.08Zm-3.137.476c.024.04.008.08-.032.08-.047 0-.087-.04-.087-.08 0-.047.016-.079.032-.079.023 0 .063.032.087.08ZM26.57 40.566c0 .04.04.056.079.032.048-.024.08-.063.08-.087 0-.016-.032-.032-.08-.032-.04 0-.08.04-.08.087Z"/>
  <path fill="#0E5747" d="M61.412 40.574c.04.04.127.064.182.048.064-.024.024-.056-.08-.087-.134-.032-.166-.024-.102.04ZM63.89 40.51c0 .017.055.048.118.08.064.024.12.008.12-.032 0-.047-.056-.079-.12-.079-.063 0-.119.016-.119.032ZM12.237 40.638c-.024.04-.008.08.032.08.048 0 .087-.04.087-.08 0-.048-.015-.08-.031-.08-.024 0-.064.032-.088.08ZM27.284 41.392c0 .064.048.12.111.12.064 0 .127-.056.16-.12.03-.08-.009-.119-.112-.119-.087 0-.159.056-.159.12ZM69.066 42.067c.111.175.19.199.254.087.024-.031-.047-.103-.15-.15-.183-.088-.191-.08-.104.063ZM55.044 42.051c-.024.04.008.072.071.072s.095-.032.072-.072c-.024-.031-.056-.063-.072-.063-.016 0-.048.032-.071.063ZM27.523 43.052c0 .11.031.206.063.206.087 0 .095-.31.008-.357-.04-.032-.072.04-.072.15ZM54.496 42.996c-.032.024-.056.087-.056.135 0 .048.04.04.096-.016.047-.047.07-.111.055-.135-.024-.024-.071-.016-.095.016ZM53.527 43.814c-.024.04-.008.08.032.08.047 0 .087-.04.087-.08 0-.048-.016-.08-.032-.08-.023 0-.063.032-.087.08ZM10.268 44.457c.032.103.064.143.087.08a.216.216 0 0 0-.047-.183c-.064-.064-.072-.032-.04.103ZM71.63 45.084c.025.04.064.08.088.08.016 0 .032-.04.032-.08 0-.047-.04-.079-.087-.079-.04 0-.056.032-.032.08ZM52.82 46.934c.024.08.072.12.096.096.023-.024 0-.088-.056-.143-.08-.072-.087-.064-.04.047ZM11.626 47.355c.048.024.08.08.048.12-.024.04.016.07.087.07.183 0 .103-.19-.087-.214-.08-.015-.104 0-.048.024ZM52.78 47.911c0 .087.024.111.048.048.024-.056.016-.127-.008-.151-.023-.032-.047.016-.04.103ZM24.505 47.943c0 .04.04.08.088.08.04 0 .055-.04.031-.08-.024-.048-.063-.08-.087-.08-.016 0-.032.032-.032.08ZM52.773 48.292c0 .072.04.127.08.127.047 0 .078-.031.078-.071a.15.15 0 0 0-.079-.127c-.04-.024-.08.008-.08.071ZM22.885 48.443c.024.08.072.12.095.096.024-.024 0-.088-.055-.143-.08-.072-.087-.064-.04.047ZM22.202 48.737c0 .04.04.08.088.08.04 0 .055-.04.032-.08-.024-.048-.064-.08-.088-.08-.016 0-.032.032-.032.08ZM53.535 48.951c-.048.111-.04.12.04.048.055-.056.079-.12.055-.143-.024-.024-.071.016-.095.095ZM19.185 49.054c-.063.04-.087.096-.055.136.04.031.095.007.135-.048.047-.088.07-.08.103.04.032.127.04.127.047-.032.008-.19-.047-.215-.23-.096ZM14.985 49.182c0 .087.024.11.047.047.024-.055.016-.127-.008-.15-.023-.032-.047.015-.04.103ZM17.915 49.293c0 .04.055.055.119.032.063-.032.119-.064.119-.08s-.056-.032-.12-.032c-.063 0-.118.032-.118.08ZM54.964 50.15a.446.446 0 0 1 .135.207c.08.198.167.103.095-.103-.023-.096-.11-.167-.182-.167-.08 0-.104.024-.048.063ZM67.86 50.825c0 .072.03.143.07.167.04.032.064-.008.056-.072-.024-.166-.127-.246-.127-.095ZM56.084 51.04c-.024.095 0 .159.063.159.064 0 .088-.064.064-.16a.475.475 0 0 0-.064-.158.475.475 0 0 0-.063.159ZM67.526 51.095c.055.024.127.016.15-.008.032-.024-.015-.047-.103-.04-.087 0-.11.024-.047.048ZM58.625 51.651c.087.246.11.27.206.199a.752.752 0 0 1 .254-.12c.151-.031.143-.04-.016-.047-.095 0-.198-.048-.222-.087-.087-.143-.278-.088-.222.055ZM59.498 51.73c-.08.072-.071.183.008.183.04 0 .072-.055.072-.119 0-.135-.008-.143-.08-.063ZM59.164 52.151c-.023.04 0 .08.056.08.072 0 .072.023-.016.079-.103.063-.095.08.024.08.072 0 .135-.048.135-.112 0-.15-.135-.23-.199-.127ZM64.365 52.437c0 .064.04.096.08.072.048-.032.063-.088.04-.127-.072-.111-.12-.088-.12.055ZM60.673 52.469c-.024.047.008.056.072.032.143-.056.166-.111.055-.111a.151.151 0 0 0-.127.079ZM59.649 52.588c-.024.063-.008.119.032.119.047 0 .08-.056.08-.12 0-.063-.017-.118-.033-.118s-.047.055-.08.119Z"/>
  <path fill="#F4F1E9" d="M134.656 68.652c-15.48 0-25.776-11.736-25.776-27.792 0-15.912 9.936-27.936 25.848-27.936 6.12 0 11.16 1.584 14.832 4.392 4.32 3.384 6.912 8.208 7.56 13.824h-9.936c-.936-5.76-5.472-9.792-12.528-9.792-10.224 0-15.624 8.352-15.624 19.512 0 11.376 6.12 19.368 15.696 19.368 7.992 0 12.384-5.328 12.96-11.808h10.008c-.216 5.328-2.736 10.728-6.48 14.328-3.888 3.888-9.36 5.904-16.56 5.904Zm35.925-40.32c0 1.08-.072 4.032-.144 6.264h.216c2.592-4.104 6.48-6.552 11.88-6.552 8.28 0 13.248 5.112 13.248 13.392V67.5h-9.144V42.948c0-4.536-2.664-7.344-7.344-7.344-5.112 0-8.712 3.888-8.712 9.36V67.5h-9.144V13.932h9.144v14.4ZM225.867 67.5c-.648-.864-1.152-2.376-1.296-4.968h-.144c-2.52 3.384-5.976 5.904-12.096 5.904-7.488 0-13.104-3.888-13.104-11.376 0-8.712 6.624-10.8 15.768-11.88 6.336-.792 9.504-1.8 9.504-5.256 0-3.312-2.304-5.544-6.912-5.544-5.112 0-7.632 2.376-7.848 6.192h-8.64c.288-6.552 5.472-12.528 16.416-12.528 4.392 0 7.776.648 10.296 2.232 3.6 2.16 5.472 5.832 5.472 10.944v20.232c0 3.168.576 4.824 1.44 5.4v.648h-8.856Zm-10.872-5.328c6.264 0 9.72-4.32 9.72-8.64v-5.688c-1.8 1.152-4.68 1.944-7.488 2.52-5.616 1.08-8.856 2.232-8.856 6.48 0 4.104 3.096 5.328 6.624 5.328Zm32.717-33.12v6.912h.216c2.448-4.968 6.12-7.488 11.016-7.488 1.08 0 1.8.072 2.448.36v8.208h-.288c-.864-.216-1.584-.288-2.52-.288C252.536 36.684 248 40.788 248 48.204V67.5h-9.144V29.052h8.856ZM264.667 67.5V13.932h9.216V67.5h-9.216Zm14.621-44.712v-8.856h9.36v8.856h-9.36Zm.144 44.712V29.052h9.144V67.5h-9.144Zm32.198 1.152c-12.24 0-19.584-8.928-19.584-20.304 0-11.448 7.704-20.304 19.08-20.304 5.616 0 10.008 1.944 13.248 5.4 3.744 3.96 5.544 10.008 5.472 17.136h-28.728c.648 6.624 4.176 11.088 10.584 11.088 4.392 0 7.272-1.872 8.496-5.04h8.928c-1.872 6.912-8.064 12.024-17.496 12.024Zm-.504-33.984c-5.976 0-9.072 4.104-9.864 10.152h19.152c-.36-6.336-3.744-10.152-9.288-10.152Z"/>
</svg>