<svg width="652" height="150" viewBox="0 0 652 150" fill="none" xmlns="http://www.w3.org/2000/svg">
<rect y="10.5" width="129" height="129" rx="16" fill="black"/>
<path d="M61.9597 56.9048C61.6724 57.2171 61.4101 58.2414 61.3476 59.2907C61.3226 59.6904 61.2727 60.2026 61.2352 60.4399C61.1977 60.6773 61.1353 61.2144 61.0978 61.6266C61.0478 62.3636 60.9729 63.0506 60.848 64.1874C60.8105 64.4996 60.7605 64.9743 60.723 65.2491C60.6981 65.5239 60.6356 66.0611 60.5981 66.4358C60.4982 67.5351 59.9236 73.1812 59.8486 73.8682C59.8112 74.2055 59.7612 74.7426 59.7487 75.0549C59.7362 75.3672 59.6862 75.6795 59.6363 75.7545C59.5863 75.8294 59.5239 76.3166 59.4864 76.8412C59.4614 77.3659 59.3989 77.8405 59.374 77.8905C59.3365 77.953 59.274 78.5026 59.2241 79.1147C59.1116 80.7386 58.9368 82.4124 58.7119 84.2986C58.6744 84.6109 58.6245 85.248 58.587 85.7351C58.5495 86.2098 58.4871 86.697 58.4621 86.7969C58.4246 86.8968 58.3746 87.2966 58.3497 87.6713C58.3247 88.0461 58.2247 89.2203 58.1123 90.2695C57.9 92.4181 57.9374 92.6304 58.6245 93.0551C59.0617 93.33 59.4989 93.3799 61.485 93.4299C62.2595 93.4549 62.6093 93.4049 62.984 93.2175L63.4712 92.9802L63.4337 84.7983C63.4087 77.9904 63.3213 67.9723 63.2838 67.4976C63.2838 67.4226 63.2963 66.7356 63.3088 65.9611C63.3338 65.1742 63.3213 64.5246 63.2963 64.4872C63.2213 64.4122 63.2463 62.3011 63.3213 62.2262C63.3587 62.2012 63.3463 62.0138 63.2963 61.839C63.2463 61.6516 63.2088 61.3018 63.2213 61.0645C63.2713 60.1776 63.3088 59.2532 63.2838 59.1908C63.2713 59.1533 63.2463 58.6911 63.2213 58.1665C63.1839 57.0797 62.9715 56.6175 62.5218 56.6175C62.3594 56.6175 62.1096 56.7424 61.9597 56.9048Z" fill="#F4F1E9"/>
<path d="M28.795 58.7161C28.7076 58.9034 28.7201 59.4531 28.82 59.503C28.8825 59.553 28.9325 59.7154 28.9325 59.8778C28.9325 60.0402 28.9949 60.215 29.0699 60.2525C29.1448 60.3025 29.1823 60.5023 29.1573 60.7022C29.1448 60.9146 29.1823 61.1144 29.2572 61.1644C29.3322 61.2144 29.4571 61.3767 29.5445 61.5266C29.6445 61.714 29.7569 61.7765 29.9068 61.7265C30.0942 61.6516 30.0942 61.6641 29.9568 61.8514C29.8318 62.0013 29.8193 62.1137 29.9193 62.2761C29.9942 62.4011 30.0567 62.426 30.0567 62.3386C30.0567 62.0638 30.2815 62.1762 30.3565 62.5135C30.4189 62.7508 30.5064 62.8258 30.6813 62.7758C30.8436 62.7383 31.0685 62.8882 31.4432 63.3254C31.8055 63.7501 32.0178 63.9 32.1053 63.8126C32.2927 63.6252 32.4675 63.6627 32.3926 63.8626C32.3051 64.0999 32.6549 64.3872 32.9547 64.3372C33.0796 64.3122 33.1796 64.3497 33.1796 64.4247C33.1796 64.612 33.5543 64.9368 33.7667 64.9368C33.9041 64.9368 33.9415 64.8619 33.8791 64.6245C33.8291 64.4497 33.8291 64.3122 33.8791 64.3122C33.9915 64.3122 34.4162 64.8494 34.4287 64.9993C34.4412 65.1991 35.2781 65.6988 35.3656 65.5614C35.478 65.374 35.6778 65.4115 35.6778 65.6114C35.6778 65.7113 35.7403 65.8362 35.8277 65.8862C35.9027 65.9361 35.9277 65.9236 35.8777 65.8362C35.7403 65.6114 36.0526 65.5239 36.2774 65.7238C36.6022 65.9861 36.877 66.0611 37.0394 65.8987C37.1518 65.7862 37.2143 65.7862 37.2892 65.9112C37.4267 66.136 38.3011 66.2109 38.3011 65.9986C38.3011 65.8112 38.6508 65.8237 38.7757 66.0236C38.8882 66.1985 40.7993 66.1485 40.9118 65.9611C40.9492 65.8987 41.1991 65.8612 41.4614 65.8737C41.7737 65.8987 41.9611 65.8612 41.9985 65.7488C42.0485 65.6238 42.1484 65.6114 42.4357 65.7113C42.7605 65.8237 42.8604 65.7987 43.1228 65.5489C43.3726 65.3241 43.46 65.2866 43.535 65.424C43.6099 65.5364 43.6724 65.5489 43.7224 65.449C43.7723 65.374 44.0721 65.2491 44.3719 65.1742C44.7841 65.0617 44.9715 64.9493 45.0589 64.737C45.1089 64.5746 45.2588 64.4372 45.3837 64.4372C45.671 64.4247 46.2581 63.9875 46.1332 63.8626C46.0832 63.8126 46.0458 63.8376 46.0458 63.9125C46.0458 64 45.9958 64.0624 45.9209 64.0624C45.8584 64.0624 45.7959 63.975 45.7959 63.875C45.7959 63.7626 45.9084 63.6877 46.1082 63.6877C46.2831 63.6877 46.4205 63.7376 46.4205 63.8126C46.4205 63.875 46.483 63.9375 46.5454 63.9375C46.6204 63.9375 46.6703 63.8251 46.6703 63.6877C46.6703 63.5503 46.7203 63.4378 46.7828 63.4378C46.8577 63.4378 46.8952 63.2879 46.8827 63.1006C46.8702 62.8632 46.9202 62.7508 47.0826 62.7133C47.2699 62.6759 47.3074 62.7133 47.2325 62.9257C47.095 63.3754 47.3699 63.213 47.5947 62.7133C47.7071 62.4635 47.9944 62.0638 48.2318 61.8389C48.644 61.4267 48.644 61.4142 48.4067 61.1769C48.2193 60.9895 48.1943 60.8771 48.2942 60.6897C48.5191 60.265 48.4191 60.1776 48.0819 60.5023C47.8945 60.6772 47.6946 60.8271 47.6447 60.8271C47.4198 60.8646 47.3199 60.9146 46.5079 61.3018C46.0333 61.5391 45.5711 61.8514 45.4587 62.0263C45.2963 62.2761 45.2463 62.2886 45.1214 62.1262C44.9965 61.9638 44.909 61.9763 44.3844 62.2512C44.0596 62.426 43.5974 62.5759 43.3601 62.5884C43.1228 62.6009 42.9229 62.6509 42.9229 62.7008C42.9229 62.8507 42.5107 62.9507 42.3983 62.8383C42.3358 62.7758 42.0735 62.7883 41.7862 62.8632C41.4114 62.9632 41.2241 62.9507 41.0492 62.8383C40.8618 62.7258 40.7244 62.7258 40.4621 62.8383C39.9624 63.0381 38.8382 63.0506 38.1761 62.8757C37.8639 62.7883 37.3517 62.7258 37.0269 62.7508C36.6772 62.7633 36.4148 62.7133 36.3774 62.6259C36.3524 62.5385 36.0651 62.476 35.7528 62.476C35.4405 62.4635 35.0658 62.3761 34.9034 62.2636C34.7535 62.1512 34.5411 62.0638 34.4287 62.0638C34.3288 62.0638 34.1664 61.9514 34.0789 61.814C33.954 61.6141 33.8666 61.5891 33.6168 61.689C33.3794 61.7765 33.3045 61.764 33.3045 61.6266C33.3045 61.4017 32.8423 61.1519 32.6174 61.2393C32.5175 61.2768 32.3426 61.1769 32.2177 61.0145C32.0928 60.8646 31.9304 60.7522 31.8555 60.7772C31.7181 60.8271 30.7437 60.0776 30.5189 59.7654C30.4564 59.6904 30.4564 59.7654 30.4939 59.9277C30.5563 60.1276 30.5439 60.1901 30.4439 60.1401C30.369 60.0901 30.3065 59.9402 30.3065 59.8028C30.3065 59.6279 30.2441 59.5655 30.0942 59.5905C29.9692 59.6155 29.7944 59.553 29.7069 59.4406C29.557 59.2782 29.5445 59.2782 29.607 59.4656C29.6445 59.5905 29.6195 59.7154 29.5445 59.7529C29.4821 59.8028 29.3197 59.578 29.1823 59.2657C28.9699 58.766 28.845 58.6036 28.795 58.7161ZM29.6819 60.315C29.6819 60.5648 29.4321 60.4274 29.2447 60.0651C28.9824 59.5655 29.0074 59.528 29.3697 59.8903C29.5445 60.0651 29.6819 60.2525 29.6819 60.315ZM30.3065 60.5773C30.3065 60.6398 30.2191 60.6897 30.1191 60.6897C30.0192 60.6897 29.9318 60.6023 29.9318 60.5023C29.9318 60.3899 30.0067 60.3524 30.1191 60.3899C30.2191 60.4399 30.3065 60.5148 30.3065 60.5773ZM30.6813 60.6273C30.6813 60.8021 30.6313 60.9395 30.5563 60.9395C30.4189 60.9395 30.3815 60.5273 30.5189 60.4024C30.6563 60.265 30.6813 60.3025 30.6813 60.6273ZM48.1693 61.3767C48.1693 61.4392 48.1069 61.4142 48.0444 61.3143C47.9819 61.2144 47.9195 61.0645 47.9195 61.002C47.9195 60.9271 47.9819 60.9645 48.0444 61.0645C48.1069 61.1644 48.1693 61.3018 48.1693 61.3767ZM47.7946 61.1144C47.7946 61.1519 47.7446 61.2144 47.6697 61.2518C47.6072 61.2893 47.5447 61.2643 47.5447 61.2019C47.5447 61.1269 47.6072 61.0645 47.6697 61.0645C47.7446 61.0645 47.7946 61.0894 47.7946 61.1144ZM31.1934 62.0013C31.2059 62.2137 30.9686 62.2137 30.8811 62.0013C30.8312 61.8639 30.8686 61.814 31.006 61.8389C31.106 61.8639 31.1934 61.9264 31.1934 62.0013ZM31.6806 62.3136C31.6806 62.3761 31.6556 62.4385 31.6306 62.4385C31.5931 62.4385 31.5307 62.3761 31.4932 62.3136C31.4557 62.2387 31.4807 62.1887 31.5432 62.1887C31.6181 62.1887 31.6806 62.2387 31.6806 62.3136ZM45.671 63.95C45.671 64.0125 45.5836 64.0624 45.4836 64.0624C45.3712 64.0624 45.3338 63.9875 45.3712 63.875C45.4462 63.6877 45.671 63.7376 45.671 63.95ZM44.0097 64.712C43.9722 64.8119 43.9347 64.7744 43.9347 64.637C43.9222 64.4996 43.9597 64.4247 43.9972 64.4746C44.0346 64.5121 44.0471 64.6245 44.0097 64.712ZM37.0519 65.1866C37.0519 65.2491 37.0019 65.3116 36.927 65.3116C36.8645 65.3116 36.8021 65.2491 36.8021 65.1866C36.8021 65.1117 36.8645 65.0617 36.927 65.0617C37.0019 65.0617 37.0519 65.1117 37.0519 65.1866Z" fill="#F4F1E9"/>
<path d="M77.6739 60.5024C77.6615 60.8771 77.6864 60.9271 77.9363 60.9021C78.1486 60.8771 78.2111 60.9396 78.2111 61.1894C78.2111 61.3643 78.2735 61.5391 78.361 61.6016C78.4484 61.6516 78.4859 61.7765 78.4484 61.8639C78.4109 61.9639 78.4984 62.2512 78.6358 62.5135C78.7857 62.7758 78.8981 63.1006 78.8981 63.213C78.8981 63.3379 78.9606 63.4378 79.0355 63.4378C79.1105 63.4378 79.1479 63.3504 79.098 63.2505C79.0605 63.1505 79.073 63.0631 79.1355 63.0631C79.2729 63.0631 79.5352 63.3754 79.5727 63.5877C79.7101 64.2748 79.81 64.4372 79.9724 64.2998C80.1098 64.1873 80.1722 64.2248 80.2597 64.4621C80.3221 64.6245 80.5595 64.8244 80.8093 64.9243C81.0591 65.0243 81.284 65.1991 81.309 65.3365C81.3464 65.4615 81.4714 65.5989 81.6088 65.6488C81.7337 65.6863 82.0335 65.8862 82.2708 66.086C82.5081 66.2859 82.7705 66.4858 82.8329 66.5482C82.9079 66.5982 83.0828 66.6107 83.2077 66.5607C83.3451 66.5107 83.495 66.5357 83.5574 66.6107C83.6199 66.6981 83.7323 66.6482 83.8947 66.4358L84.1445 66.1235V66.4108C84.1445 66.6107 84.232 66.7356 84.4069 66.7731C84.5443 66.8105 84.6317 66.9105 84.5942 66.9979C84.5692 67.0854 84.6692 67.2727 84.8191 67.4226C85.0314 67.6225 85.1314 67.6475 85.2438 67.535C85.3312 67.4476 85.3937 67.3227 85.3937 67.2477C85.3937 67.1853 85.3437 67.2103 85.2688 67.3102C85.1688 67.4601 85.1438 67.4601 85.0689 67.2727C84.9565 66.9854 85.0689 66.898 85.3937 66.9979C85.6185 67.0729 85.656 67.1478 85.5935 67.4476C85.5186 67.8723 85.7559 67.9598 85.8559 67.5475C85.9308 67.2852 85.9433 67.2852 86.1057 67.5101C86.2431 67.7099 86.318 67.7224 86.5179 67.585C86.7428 67.4476 86.7677 67.4601 86.7677 67.7474C86.7677 68.0222 86.8177 68.0472 87.2424 68.0222C87.4922 68.0097 87.7795 67.9473 87.867 67.8973C88.0044 67.7974 88.0669 67.8723 88.0294 68.0847C88.0044 68.2596 88.2417 68.1846 88.3167 67.9972C88.4041 67.7474 88.6415 67.7599 88.6415 68.0097C88.6415 68.1471 88.7164 68.1846 88.9288 68.1221C89.0787 68.0722 89.3035 68.0097 89.4284 67.9847C89.5658 67.9348 89.6408 67.9847 89.6408 68.1097C89.6408 68.272 89.6783 68.2845 89.8781 68.1596C90.0655 68.0472 90.1654 68.0472 90.3028 68.1596C90.4527 68.2845 90.5901 68.272 91.0023 68.1097C91.2896 67.9972 91.6269 67.9348 91.7518 67.9722C91.8892 68.0097 92.1141 67.9473 92.2515 67.8473C92.4014 67.7474 92.5638 67.7099 92.6387 67.7474C92.8136 67.8598 92.951 67.1978 92.7761 67.0229C92.7012 66.9479 92.6387 66.8355 92.6387 66.7606C92.6387 66.6856 92.7012 66.6981 92.7886 66.7856C92.8761 66.873 93.0385 66.9355 93.1634 66.9355C93.2883 66.9355 93.3882 67.0229 93.3882 67.1228C93.3882 67.2228 93.3008 67.3102 93.2008 67.3102C93.1009 67.3102 93.0135 67.3976 93.0135 67.4976C93.0135 67.7349 93.2133 67.7474 93.3008 67.5101C93.3383 67.4101 93.5006 67.3102 93.663 67.2852C93.8379 67.2602 93.9503 67.1728 93.9378 67.0354C93.9254 66.8855 94.0128 66.8355 94.2626 66.8355C94.45 66.848 94.6623 66.8105 94.7498 66.7606C94.8372 66.6981 94.8872 66.7731 94.8872 66.9355C94.8872 67.0854 94.9496 67.1603 95.0121 67.1228C95.0871 67.0729 95.0995 66.9729 95.0246 66.8355C94.9621 66.7106 94.9621 66.5607 95.0496 66.4233C95.1745 66.2234 95.1995 66.2234 95.3244 66.3983C95.5118 66.6482 95.7616 66.5107 95.7616 66.1735C95.7616 65.9112 95.9615 65.8487 96.0489 66.086C96.1363 66.3109 96.3862 65.9611 96.3862 65.6114C96.3862 65.2741 96.9483 64.9868 97.0607 65.2616C97.1232 65.424 97.1856 65.424 97.5229 65.2491C97.7352 65.1367 97.8727 65.0118 97.8352 64.9743C97.7977 64.9243 97.8477 64.7619 97.9476 64.5996C98.06 64.4372 98.085 64.3122 98.0101 64.3122C97.9476 64.3122 97.8727 64.1873 97.8727 64.0249C97.8602 63.8251 97.8477 63.8001 97.7977 63.9625C97.7727 64.0874 97.6853 64.1873 97.6228 64.1873C97.4355 64.1873 97.4979 63.6377 97.7103 63.3379C97.8976 63.0631 97.8976 63.0506 97.6853 63.0881C97.5229 63.1131 97.4604 63.0631 97.4854 62.9007C97.5104 62.7883 97.4604 62.6884 97.3855 62.6884C97.323 62.6884 97.2606 62.7633 97.2606 62.8632C97.2606 63.0256 96.6235 63.3504 96.1613 63.4254C96.0989 63.4254 95.8865 63.5753 95.6991 63.7376C95.4993 63.9125 95.2869 64.0125 95.212 63.975C94.9247 63.7876 94.5 63.875 94.3251 64.1499C94.2127 64.3122 94.0378 64.4372 93.9378 64.4372C93.763 64.4372 93.763 64.3997 93.8879 64.2498C93.9878 64.1374 94.0003 64.0624 93.9129 64.0624C93.8379 64.0624 93.7505 64.1124 93.713 64.1748C93.663 64.2373 93.4132 64.3247 93.1384 64.3747C92.8636 64.4247 92.6013 64.5121 92.5638 64.5871C92.5263 64.6495 92.3389 64.687 92.1641 64.6745C91.9767 64.6495 91.7518 64.687 91.6519 64.737C91.552 64.7994 91.452 64.7869 91.3896 64.6745C91.3021 64.5496 91.2522 64.5496 91.0898 64.6745C90.9399 64.7994 90.84 64.7994 90.7275 64.712C90.6151 64.612 90.2404 64.612 89.5533 64.6745C88.3791 64.7994 87.6921 64.7619 87.4673 64.5746C87.3798 64.4996 87.0176 64.4621 86.6678 64.4871C86.1806 64.5246 85.9808 64.4871 85.8309 64.3122C85.706 64.1748 85.5186 64.1249 85.3312 64.1624C85.1438 64.1873 85.0189 64.1624 85.0189 64.0749C85.0189 64 84.9315 63.9375 84.8316 63.9375C84.6317 63.9375 84.0196 63.5877 83.8822 63.3879C83.8322 63.3254 83.7448 63.3129 83.6823 63.3504C83.6199 63.3879 83.4075 63.3129 83.1952 63.1755C82.9953 63.0506 82.708 62.9382 82.5581 62.9382C82.3832 62.9382 82.2708 62.8632 82.2708 62.7508C82.2708 62.6509 82.0335 62.451 81.7462 62.3136C80.9217 61.9139 80.6594 61.7515 80.3471 61.4517C80.1972 61.3143 80.0099 61.1894 79.9474 61.1894C79.8849 61.1894 79.76 61.077 79.6726 60.9396C79.5851 60.8021 79.4602 60.6897 79.3853 60.6897C79.3228 60.6897 79.2978 60.7397 79.3353 60.8146C79.3728 60.8771 79.3228 60.9396 79.2229 60.9396C78.9731 60.9396 78.8357 60.6897 79.023 60.5648C79.1355 60.4899 79.1105 60.4274 78.9231 60.3275C78.5608 60.1401 78.5733 60.1401 78.6233 60.6273C78.6608 60.8896 78.7482 61.0645 78.8481 61.0645C78.9481 61.0645 79.023 61.1144 79.023 61.1894C79.023 61.3892 78.9231 61.3393 78.386 60.9146C78.1236 60.7022 77.8988 60.4149 77.8988 60.29C77.8988 59.8653 77.6864 60.0651 77.6739 60.5024ZM80.0848 61.5641C80.1223 61.6266 80.0723 61.689 79.9599 61.689C79.8475 61.689 79.7975 61.6266 79.835 61.5641C79.8724 61.4892 79.9349 61.4392 79.9599 61.4392C79.9849 61.4392 80.0473 61.4892 80.0848 61.5641ZM79.4852 62.0138C79.3728 62.1262 79.1355 61.9389 79.2229 61.789C79.2729 61.714 79.3478 61.714 79.4352 61.8015C79.5102 61.8764 79.5352 61.9639 79.4852 62.0138ZM79.8974 62.2636C79.8974 62.3636 79.835 62.4135 79.7725 62.3761C79.6976 62.3261 79.6726 62.2387 79.7101 62.1762C79.8225 62.0013 79.8974 62.0388 79.8974 62.2636ZM79.8849 63.1256C79.8849 63.188 79.81 63.1381 79.7101 63.0131C79.6101 62.8882 79.5727 62.7133 79.6101 62.6509C79.6851 62.526 79.8724 62.8507 79.8849 63.1256ZM80.597 63.1505C80.472 63.2755 80.3596 63.0881 80.472 62.9257C80.547 62.7883 80.572 62.7883 80.6219 62.9257C80.6469 63.0131 80.6344 63.1131 80.597 63.1505ZM97.348 64.0249C97.3105 64.1499 97.2856 64.0499 97.2856 63.8126C97.2856 63.5753 97.3105 63.4753 97.348 63.5877C97.373 63.7127 97.373 63.9125 97.348 64.0249ZM97.0107 64C97.0107 64.0999 96.9233 64.1873 96.8234 64.1873C96.7109 64.1873 96.6735 64.1124 96.7109 64C96.7609 63.9 96.8359 63.8126 96.8983 63.8126C96.9608 63.8126 97.0107 63.9 97.0107 64ZM81.6462 64.8244C81.6462 64.8869 81.5588 64.9368 81.4589 64.9368C81.2715 64.9368 81.209 64.7869 81.3464 64.6495C81.4464 64.5496 81.6462 64.662 81.6462 64.8244ZM96.636 64.687C96.636 64.7495 96.586 64.8119 96.5111 64.8119C96.4486 64.8119 96.3862 64.7495 96.3862 64.687C96.3862 64.612 96.4486 64.5621 96.5111 64.5621C96.586 64.5621 96.636 64.612 96.636 64.687ZM97.6353 64.9493C97.6353 65.0118 97.5479 65.0617 97.4479 65.0617C97.2606 65.0617 97.1981 64.9118 97.3355 64.7744C97.4355 64.6745 97.6353 64.7869 97.6353 64.9493ZM94.7623 64.8619C94.7623 64.8993 94.7123 64.9618 94.6374 64.9993C94.5749 65.0368 94.5124 65.0118 94.5124 64.9493C94.5124 64.8744 94.5749 64.8119 94.6374 64.8119C94.7123 64.8119 94.7623 64.8369 94.7623 64.8619ZM95.2619 65.1867C95.2619 65.2491 95.1995 65.3116 95.1245 65.3116C95.0621 65.3116 95.0371 65.2491 95.0746 65.1867C95.112 65.1117 95.1745 65.0617 95.212 65.0617C95.237 65.0617 95.2619 65.1117 95.2619 65.1867ZM95.8865 65.6863C95.8865 65.7488 95.8365 65.8112 95.7616 65.8112C95.6991 65.8112 95.6367 65.7488 95.6367 65.6863C95.6367 65.6114 95.6991 65.5614 95.7616 65.5614C95.8365 65.5614 95.8865 65.6114 95.8865 65.6863ZM88.7414 66.4233C88.7789 66.5232 88.7289 66.5732 88.629 66.5357C88.5415 66.5107 88.4416 66.4108 88.4166 66.3234C88.3791 66.2234 88.4291 66.1735 88.529 66.211C88.6165 66.2359 88.7164 66.3359 88.7414 66.4233ZM92.6387 67.2353C92.6387 67.3227 92.6013 67.4351 92.5513 67.4726C92.4638 67.5725 92.1391 67.1603 92.214 67.0354C92.3015 66.898 92.6387 67.0604 92.6387 67.2353ZM89.266 67.3602C89.266 67.3976 89.2161 67.4601 89.1411 67.4976C89.0787 67.535 89.0162 67.5101 89.0162 67.4476C89.0162 67.3727 89.0787 67.3102 89.1411 67.3102C89.2161 67.3102 89.266 67.3352 89.266 67.3602ZM87.7046 67.5725C87.6546 67.635 87.4798 67.6849 87.2924 67.6849C87.08 67.6849 87.0176 67.6475 87.105 67.585C87.3299 67.4476 87.7795 67.4351 87.7046 67.5725Z" fill="#F4F1E9"/>
<path d="M48.7312 60.315C48.6938 60.3774 48.7187 60.4399 48.7812 60.4399C48.8561 60.4399 48.9186 60.3774 48.9186 60.315C48.9186 60.24 48.8936 60.1901 48.8686 60.1901C48.8312 60.1901 48.7687 60.24 48.7312 60.315Z" fill="#F4F1E9"/>
<path d="M98.2225 62.6384C98.1725 62.6883 98.135 62.8133 98.135 62.9257C98.135 63.0631 98.1725 63.0756 98.2724 62.9757C98.3474 62.9007 98.3973 62.7758 98.3599 62.6883C98.3349 62.6134 98.2724 62.5884 98.2225 62.6384Z" fill="#F4F1E9"/>
<path d="M98.385 63.8626C98.385 64.2248 98.6223 64.4122 98.7722 64.1748C98.9221 63.925 98.9097 63.8875 98.6348 63.7127C98.41 63.5753 98.385 63.5877 98.385 63.8626Z" fill="#F4F1E9"/>
<path d="M31.2182 69.796C31.1433 70.0958 31.0433 70.1208 30.8185 69.896C30.6811 69.7835 30.6436 69.7835 30.5937 69.896C30.5562 70.0084 30.4687 70.0209 30.3063 69.9334C29.8816 69.7086 29.5818 70.0209 29.6693 70.583C29.6693 70.6454 29.5943 70.6829 29.4944 70.6829C29.3945 70.6829 29.307 70.6205 29.307 70.558C29.307 70.4831 29.1696 70.4581 28.9947 70.508C28.7574 70.5705 28.6825 70.533 28.6825 70.3831C28.6825 70.2582 28.7949 70.1833 28.9698 70.1833C29.2196 70.1708 29.2321 70.1708 29.0072 70.0459C28.8698 69.9584 28.4826 69.9334 27.9954 69.9959C27.3709 70.0583 27.196 70.1208 27.146 70.3207C27.0836 70.5705 26.4965 70.8578 26.2966 70.7454C26.2341 70.6954 26.2216 70.7579 26.2591 70.8578C26.3091 70.9952 26.2591 71.0577 26.0717 71.0577C25.9218 71.0577 25.8094 70.9827 25.8094 70.8703C25.8094 70.7079 25.7844 70.7079 25.6345 70.8328C25.5096 70.9452 25.4971 71.0202 25.6096 71.0826C25.697 71.1451 25.6595 71.1826 25.5221 71.1826C25.2348 71.1826 25.0974 70.8203 25.3223 70.6704C25.4472 70.5955 25.4222 70.558 25.1973 70.558C24.96 70.558 24.9225 70.608 24.9725 70.8203C25.0225 71.0327 25.01 71.0577 24.8975 70.9452C24.7227 70.7704 24.5603 70.7704 24.5603 70.9327C24.5603 70.9952 24.4479 71.1701 24.3104 71.3075C24.0981 71.5198 24.0106 71.5323 23.7983 71.4199C23.6609 71.345 23.511 71.32 23.461 71.3575C23.4236 71.3949 23.461 71.4324 23.5485 71.4324C23.6359 71.4324 23.6609 71.4949 23.6234 71.5573C23.5734 71.6323 23.436 71.6573 23.3236 71.6198C23.0863 71.5448 22.5117 71.9695 22.6491 72.1069C22.699 72.1569 22.6491 72.1569 22.5367 72.1194C22.3992 72.057 22.2993 72.1569 22.1869 72.4567L22.037 72.8689L21.8871 72.5192C21.7372 72.1819 21.5124 72.1569 21.6373 72.4942C21.7247 72.7065 21.2251 72.8689 21.0127 72.694C20.8003 72.5192 20.4756 72.9064 20.4881 73.3186C20.5005 73.6309 20.3881 73.6684 19.8135 73.506C19.6137 73.4435 19.5637 73.456 19.6636 73.531C19.851 73.6559 19.7261 74.0931 19.5262 73.9682C19.4513 73.9182 19.4263 74.0057 19.4762 74.193C19.5637 74.5428 19.4013 74.9175 19.2639 74.6927C19.1265 74.4928 18.6893 74.5303 18.6893 74.7426C18.6893 74.8426 18.6018 74.93 18.5019 74.93C18.2896 74.93 18.2646 75.0799 18.4395 75.2548C18.5269 75.3422 18.4769 75.4796 18.2896 75.6795C18.0272 75.9543 18.0147 75.9543 17.9273 75.7295C17.8399 75.5046 17.8274 75.5046 17.8149 75.742C17.7899 75.8794 17.7899 76.0293 17.8024 76.0792C17.8024 76.1417 17.7399 76.1792 17.64 76.1792C17.4401 76.1792 17.2902 76.5414 17.0279 77.6781C16.9155 78.1278 16.7406 78.8523 16.6157 79.2895C16.4533 79.9266 16.4408 80.139 16.5532 80.3388C16.6532 80.4887 16.6782 80.8385 16.6407 81.2757C16.6032 81.6754 16.6157 81.8503 16.6657 81.6879L16.7531 81.3881L16.9155 81.7254C17.1029 82.1376 17.1154 82.3375 16.9405 82.2375C16.8655 82.1876 16.8156 82.3749 16.8156 82.6997C16.8156 83.1119 16.853 83.1994 16.953 83.0495C17.0654 82.8996 17.0779 82.9121 17.0279 83.1369C16.953 83.4742 17.2528 83.7865 17.3652 83.4867C17.4651 83.2244 17.64 83.3493 17.7149 83.7365C17.7524 83.8989 17.7274 84.0113 17.6775 83.9738C17.615 83.9364 17.5651 84.0613 17.5651 84.2362C17.5651 84.511 17.615 84.5609 17.8648 84.5235C18.2271 84.4735 19.064 85.1231 19.064 85.4603C19.064 85.5852 19.1265 85.6477 19.1889 85.6102C19.2639 85.5727 19.3139 85.5852 19.3139 85.6352C19.3139 85.6977 19.2639 85.8101 19.1889 85.8975C19.1015 86.01 19.1015 86.01 19.2139 85.9225C19.3014 85.8476 19.4513 85.7976 19.5637 85.7976C19.7261 85.7976 19.7261 85.8226 19.5637 85.935C19.4138 86.0349 19.4263 86.0474 19.6386 85.9975C19.9384 85.91 20.3881 86.3222 20.2507 86.5471C20.1883 86.647 20.3007 86.6595 20.6255 86.597C21.0876 86.5096 21.1001 86.5221 21.0252 86.8219C20.9253 87.2216 21.0252 87.3216 21.35 87.1592C21.5248 87.0592 21.6248 87.0592 21.6997 87.1841C21.7747 87.3091 21.8371 87.3091 21.9995 87.1717C22.1744 87.0343 22.2244 87.0467 22.3992 87.2841C22.4992 87.4465 22.6241 87.5214 22.6741 87.4465C22.799 87.2466 23.2861 87.1467 23.3861 87.3091C23.4485 87.4215 23.4111 87.434 23.2362 87.3715C23.0613 87.3091 23.0363 87.3216 23.1362 87.4215C23.2362 87.5214 23.3986 87.4964 23.7483 87.334C24.198 87.1217 24.2105 87.1217 24.4354 87.384C24.6727 87.6838 25.2848 87.8337 25.5346 87.6338C25.6345 87.5464 25.6845 87.5714 25.6845 87.6963C25.6845 87.8212 25.7844 87.8587 26.0592 87.8212C26.2716 87.7962 26.434 87.7213 26.434 87.6713C26.434 87.6089 26.5464 87.5964 26.6838 87.6338C26.8212 87.6713 26.9337 87.8087 26.9337 87.9336C26.9337 88.071 26.9961 88.171 27.0586 88.171C27.1335 88.171 27.1835 88.1085 27.1835 88.0211C27.1835 87.9087 27.221 87.9087 27.3334 88.0211C27.5582 88.2459 27.7206 88.2084 27.6582 87.9461C27.6207 87.7962 27.6831 87.6463 27.8205 87.5589C27.9704 87.4715 28.0579 87.4715 28.0579 87.5464C28.0579 87.7213 28.4826 87.6963 28.67 87.5089C28.8324 87.3465 30.5562 87.3216 30.9934 87.4839C31.1683 87.5464 31.1932 87.5339 31.0808 87.4465C30.9434 87.359 30.9684 87.3216 31.1558 87.2716C31.3306 87.2216 31.4431 87.2841 31.543 87.4964C31.6804 87.8087 31.7928 87.8337 32.305 87.6713C32.5423 87.5964 32.5673 87.5714 32.3799 87.5589C32.1676 87.5464 32.1926 87.359 32.4049 87.359C32.4549 87.359 32.5673 87.3091 32.6672 87.2466C32.7672 87.1841 32.8671 87.1966 32.9296 87.2966C33.0545 87.4839 33.1919 87.4839 33.3168 87.2716C33.4167 87.1342 33.4417 87.1342 33.5416 87.2841C33.6166 87.3965 33.679 87.409 33.729 87.3091C33.779 87.2341 33.9539 87.1717 34.1162 87.1717C34.2786 87.1717 34.491 87.0842 34.6034 86.9843C34.7033 86.8844 34.8158 86.7969 34.8532 86.7969C34.8907 86.7969 35.0406 86.6845 35.1905 86.5346C35.4528 86.2723 36.1524 86.2348 36.3272 86.4846C36.3897 86.5721 36.4272 86.5596 36.4272 86.4721C36.4272 86.3847 36.6395 86.3472 36.9643 86.3597C37.364 86.3972 37.6264 86.3097 38.0636 86.0349C38.3758 85.8351 38.7506 85.6727 38.9005 85.6727C39.0504 85.6727 39.3377 85.5103 39.5251 85.2979C39.7249 85.0981 39.9248 84.9607 39.9623 85.0106C40.0122 85.0481 40.0497 85.0231 40.0497 84.9482C40.0497 84.8607 39.9997 84.7983 39.9248 84.7983C39.6874 84.7983 39.7999 84.536 40.0997 84.4235C40.262 84.3611 40.4369 84.2487 40.4869 84.1737C40.5244 84.1112 40.6118 84.0738 40.6743 84.1112C40.7367 84.1487 40.8117 84.1237 40.8616 84.0488C40.8991 83.9863 40.8741 83.9239 40.8117 83.9239C40.7367 83.9239 40.6743 83.8614 40.6743 83.799C40.6743 83.724 40.8117 83.699 40.999 83.749C41.3113 83.8239 41.3238 83.8115 41.2739 83.4367C41.2239 83.0495 41.3488 82.8996 41.4612 83.1994C41.5612 83.4242 41.811 83.0495 41.736 82.8121C41.6861 82.6997 41.736 82.6747 41.861 82.7247C41.9734 82.7622 42.0483 82.7247 42.0483 82.6123C42.0483 82.5123 42.1483 82.3874 42.2732 82.3125C42.4605 82.2001 42.473 82.1751 42.2857 82.0252C42.1233 81.8878 42.1108 81.7129 42.1732 81.0508C42.2607 80.2639 42.3481 80.5387 42.3106 81.488C42.2982 81.8503 42.3106 81.8503 42.4231 81.563C42.498 81.4006 42.5605 80.9134 42.5605 80.4887C42.573 79.7767 42.598 79.7143 42.8103 79.7642C43.0352 79.8267 43.0476 79.7892 42.9727 79.3145C42.9102 78.9023 42.9227 78.8024 43.0851 78.8024C43.2475 78.8024 43.2225 78.7024 42.9727 78.2028C42.6479 77.5657 42.598 77.3034 42.8103 77.3034C42.8728 77.3034 42.8977 77.3534 42.8603 77.4283C42.8228 77.4908 42.8603 77.5532 42.9602 77.5532C43.0851 77.5532 43.1226 77.4658 43.0851 77.3284C43.0476 77.1535 42.9477 77.1035 42.6979 77.1535C42.4356 77.2035 42.3856 77.1785 42.5105 77.0536C42.5855 76.9661 42.6229 76.8162 42.573 76.7038C42.523 76.5664 42.5605 76.5289 42.7104 76.5914C43.0102 76.7038 43.2975 76.5664 43.2975 76.3166C43.2975 76.1542 43.2725 76.1542 43.1851 76.2916C43.1226 76.379 43.0476 76.404 43.0227 76.354C42.9852 76.2916 42.9852 76.3166 42.9977 76.3915C43.0227 76.479 42.9977 76.5539 42.9477 76.5539C42.8353 76.5539 42.6229 76.0543 42.4106 75.3297C42.3231 75.03 42.1483 74.7302 42.0233 74.6677C41.8984 74.6052 41.7985 74.5927 41.7985 74.6427C41.7985 74.6927 41.7111 74.6302 41.5986 74.4928C41.4987 74.3554 41.3488 74.243 41.2739 74.243C41.1989 74.243 41.099 74.1555 41.0365 74.0556C40.7742 73.5435 40.5494 72.9314 40.5494 72.744C40.5494 72.5691 40.5119 72.5566 40.3745 72.6691C40.1371 72.8689 39.625 72.6191 39.7624 72.3943C39.8124 72.2943 39.7749 72.2943 39.65 72.4067C39.4751 72.5441 39.4501 72.5317 39.4751 72.2568C39.5126 71.9321 39.3876 71.8196 39.2377 72.057C39.1378 72.2194 38.8005 72.2194 38.8005 72.0445C38.8005 71.9695 38.9255 71.8072 39.0754 71.6947C39.2627 71.5448 39.3002 71.4449 39.2003 71.3824C39.1128 71.3325 39.0504 71.37 39.0504 71.4824C39.0504 71.7072 38.7256 71.7572 38.6507 71.5573C38.6007 71.3949 38.201 71.3575 37.9012 71.4949C37.7388 71.5573 37.6763 71.5323 37.6763 71.3824C37.6763 71.27 37.5764 71.1826 37.439 71.1826C37.2891 71.1826 37.1767 71.0702 37.1267 70.8703C37.0268 70.4955 36.8019 70.4581 36.8019 70.8078C36.8019 71.1076 36.702 71.1201 36.4022 70.8453C36.2773 70.7329 36.1773 70.6954 36.1773 70.7579C36.1773 70.8203 35.94 70.8703 35.6402 70.8703C35.2405 70.8703 35.1281 70.8203 35.153 70.6829C35.1905 70.533 35.1655 70.5205 35.0406 70.6454C34.8283 70.8578 34.491 70.8453 34.3161 70.633C34.2037 70.4955 34.2162 70.4206 34.3661 70.2707C34.541 70.0958 34.5285 70.0708 34.3036 69.9959C34.1662 69.9584 34.0538 69.8585 34.0538 69.796C34.0538 69.7336 33.9913 69.6836 33.9164 69.6836C33.8414 69.6836 33.804 69.7586 33.8414 69.8335C33.9164 70.0583 33.6915 70.4581 33.5416 70.3581C33.4667 70.3207 33.4417 70.1958 33.4917 70.0958C33.5416 69.9334 33.5291 69.9209 33.3668 70.0583C33.2169 70.1833 33.1794 70.1833 33.1669 70.0459C33.1669 69.9459 33.1169 69.9959 33.0545 70.1458C32.9795 70.3332 32.8671 70.3956 32.6922 70.3457C32.5423 70.3082 32.4299 70.1958 32.4299 70.1083C32.4299 69.846 32.2051 69.896 32.1176 70.1833C32.0801 70.3207 31.9802 70.4331 31.9177 70.4331C31.8428 70.4331 31.8303 70.3706 31.8678 70.3082C31.9053 70.2332 31.8803 70.1833 31.8178 70.1833C31.7429 70.1833 31.6804 70.1208 31.6804 70.0459C31.6804 69.9709 31.593 69.8335 31.4805 69.7211C31.3057 69.5462 31.2807 69.5462 31.2182 69.796ZM28.3702 70.533C28.1079 70.5955 27.8081 70.4706 27.8081 70.3207C27.8081 70.1083 28.2453 70.0958 28.4076 70.2957C28.5451 70.4581 28.5326 70.508 28.3702 70.533ZM42.1732 75.5546C42.1732 75.6171 42.1483 75.6795 42.1233 75.6795C42.0858 75.6795 42.0233 75.6171 41.9859 75.5546C41.9484 75.4796 41.9734 75.4297 42.0358 75.4297C42.1108 75.4297 42.1732 75.4796 42.1732 75.5546ZM42.2607 79.9516C42.2232 80.039 42.1982 79.9766 42.1982 79.8017C42.1982 79.6268 42.2232 79.5644 42.2607 79.6393C42.2857 79.7267 42.2857 79.8766 42.2607 79.9516ZM42.0983 82.3125C42.0608 82.3749 41.9859 82.3999 41.9234 82.3624C41.8734 82.325 41.7985 82.3749 41.761 82.4499C41.736 82.5373 41.6611 82.5748 41.6111 82.5248C41.4612 82.3874 41.786 82.0502 41.9984 82.1376C42.0858 82.1751 42.1358 82.25 42.0983 82.3125ZM17.1903 82.5498C17.1903 82.6123 17.1278 82.6747 17.0529 82.6747C16.9904 82.6747 16.9655 82.6123 17.0029 82.5498C17.0404 82.4749 17.1029 82.4249 17.1403 82.4249C17.1653 82.4249 17.1903 82.4749 17.1903 82.5498ZM17.3777 83.0495C17.4152 83.1119 17.3902 83.1744 17.3277 83.1744C17.2528 83.1744 17.1903 83.1119 17.1903 83.0495C17.1903 82.9745 17.2153 82.9246 17.2403 82.9246C17.2777 82.9246 17.3402 82.9745 17.3777 83.0495Z" fill="#F4F1E9"/>
<path d="M32.6797 69.796C32.6797 69.8585 32.7421 69.9584 32.8046 69.9959C32.8796 70.0333 32.9295 70.0208 32.9295 69.9459C32.9295 69.8834 32.8796 69.7835 32.8046 69.746C32.7421 69.7086 32.6797 69.7211 32.6797 69.796Z" fill="#F4F1E9"/>
<path d="M34.641 70.0583C34.6785 70.1957 34.7534 70.2707 34.8159 70.2332C34.9908 70.1333 34.9408 69.8085 34.7534 69.8085C34.641 69.8085 34.6035 69.8959 34.641 70.0583Z" fill="#F4F1E9"/>
<path d="M36.1275 70.3706C36.1774 70.4705 36.2274 70.558 36.2524 70.558C36.2774 70.558 36.3024 70.4705 36.3024 70.3706C36.3024 70.2707 36.2524 70.1832 36.1774 70.1832C36.115 70.1832 36.09 70.2707 36.1275 70.3706Z" fill="#F4F1E9"/>
<path d="M37.9261 70.9952C38.0135 71.1076 38.1134 71.1576 38.1384 71.1326C38.2259 71.0452 38.051 70.8078 37.9011 70.8078C37.8261 70.8078 37.8261 70.8828 37.9261 70.9952Z" fill="#F4F1E9"/>
<path d="M40.2996 72.1944C40.2996 72.2568 40.362 72.2818 40.4245 72.2443C40.4994 72.2069 40.5494 72.1444 40.5494 72.1069C40.5494 72.082 40.4994 72.057 40.4245 72.057C40.362 72.057 40.2996 72.1194 40.2996 72.1944Z" fill="#F4F1E9"/>
<path d="M40.8867 73.0438C40.8242 73.3186 40.8992 73.456 41.0615 73.3561C41.2114 73.2686 41.2114 72.8065 41.0615 72.8065C40.9991 72.8065 40.9241 72.9189 40.8867 73.0438Z" fill="#F4F1E9"/>
<path d="M41.4238 73.7933C41.4238 74.1056 41.4988 74.1306 41.5862 73.8682C41.6362 73.7683 41.6112 73.6559 41.5487 73.6184C41.4738 73.5684 41.4238 73.6559 41.4238 73.7933Z" fill="#F4F1E9"/>
<path d="M98.7721 74.1181C98.797 74.8051 98.7596 74.93 98.5722 74.93C98.4098 74.93 98.3723 74.8676 98.3848 74.6177C98.3973 74.5803 98.3099 74.4553 98.1975 74.3554C98.0975 74.243 98.0476 74.1056 98.085 74.0306C98.135 73.9432 98.11 73.9307 98.0351 73.9807C97.9476 74.0306 97.8852 74.2055 97.8852 74.3804C97.8852 74.5678 97.8102 74.6802 97.6853 74.6802C97.5854 74.6802 97.5354 74.6177 97.5729 74.5553C97.6104 74.4803 97.5354 74.4304 97.3855 74.4304C97.2356 74.4304 97.1482 74.4803 97.1981 74.5428C97.2356 74.6177 97.0482 74.6552 96.7609 74.6427C96.4736 74.6302 96.2613 74.5678 96.2613 74.4803C96.2613 74.4054 96.1614 74.2555 96.0489 74.168C95.8366 74.0056 95.8366 74.0056 96.0115 74.2305C96.1863 74.4553 96.1738 74.4678 95.6617 74.4054C95.3369 74.3554 95.162 74.3804 95.212 74.4553C95.2869 74.5678 94.8497 74.5428 94.425 74.4179C94.3501 74.3929 94.1877 74.4803 94.0878 74.6177C93.9129 74.8426 93.9004 74.8426 93.8879 74.6427C93.8879 74.2555 93.6506 74.4179 93.5631 74.8676C93.5132 75.1299 93.4132 75.3048 93.3008 75.3048C93.2009 75.3048 93.1634 75.2423 93.2134 75.1549C93.2758 75.0549 93.2383 75.0424 93.0884 75.0924C92.9386 75.1549 92.8511 75.0924 92.7637 74.8925C92.7012 74.7426 92.6512 74.6927 92.6512 74.7676C92.6388 74.8551 92.5513 74.93 92.4514 74.93C92.3515 74.93 92.264 75.0424 92.264 75.1798C92.264 75.4422 92.0766 75.5171 91.9517 75.2923C91.9018 75.2173 91.7144 75.2048 91.502 75.2423C91.2272 75.3048 91.1398 75.2798 91.1398 75.1299C91.1398 75.0175 91.2022 74.93 91.2647 74.93C91.3396 74.93 91.3896 74.88 91.3896 74.8176C91.3896 74.6677 90.9149 74.7926 90.8025 74.9675C90.7525 75.0424 90.79 75.0549 90.89 74.9925C91.0149 74.9175 91.0398 74.9425 90.9774 75.1049C90.9274 75.2298 90.89 75.3547 90.89 75.3797C90.89 75.4172 90.7775 75.3797 90.6401 75.3048C90.5027 75.2298 90.3903 75.2173 90.3903 75.2798C90.3903 75.3422 90.2654 75.3922 90.1155 75.3797C89.6908 75.3422 89.2661 75.667 89.2661 76.0168C89.2661 76.2291 89.316 76.2916 89.4284 76.2291C89.5159 76.1667 89.5034 76.2291 89.391 76.3665C89.2161 76.5789 89.2036 76.5664 89.1411 76.1792C89.0787 75.8044 88.7664 75.4796 88.7664 75.7919C88.7664 75.8669 88.8289 75.9293 88.8913 75.9293C88.9663 75.9293 89.0162 76.0792 89.0162 76.2666C89.0162 76.5164 88.9788 76.5664 88.9038 76.4415C88.8413 76.354 88.7289 76.3166 88.6415 76.3665C88.5291 76.4415 88.5291 76.479 88.654 76.5664C88.7789 76.6413 88.7789 76.6788 88.679 76.6788C88.604 76.6788 88.5041 76.6289 88.4541 76.5664C88.4166 76.5039 88.2293 76.4665 88.0419 76.4914C87.8545 76.5164 87.6547 76.5414 87.6047 76.5414C87.5422 76.5539 87.5422 76.6039 87.5797 76.6788C87.6172 76.7413 87.5922 76.8037 87.5297 76.8037C87.4548 76.8037 87.3923 76.8912 87.3923 76.9911C87.3923 77.216 87.0051 77.2409 86.7927 77.0286C86.6803 76.9162 86.6429 76.9411 86.6429 77.191C86.6429 77.3534 86.5304 77.5657 86.393 77.6532C86.1932 77.7781 86.1432 77.7781 86.1432 77.6532C86.1432 77.5407 86.1057 77.5407 86.0308 77.6656C85.9558 77.7781 85.9558 77.9405 86.0308 78.0904C86.1307 78.2652 86.1932 78.2902 86.3431 78.1653C86.468 78.0654 86.5179 78.0654 86.5179 78.1653C86.5179 78.2902 86.3431 78.3527 86.0932 78.3152C86.0308 78.3027 85.9308 78.3652 85.8809 78.4526C85.8059 78.5775 85.7435 78.5775 85.631 78.4651C85.5061 78.3402 85.4312 78.3902 85.2438 78.6775C85.1189 78.8898 85.019 79.1396 85.019 79.2271C85.019 79.327 84.969 79.4269 84.894 79.4519C84.8316 79.4644 84.7691 79.6643 84.7441 79.8891C84.7317 80.1015 84.6692 80.2514 84.6192 80.2264C84.5693 80.1889 84.5193 80.2264 84.5193 80.3013C84.5193 80.3888 84.4444 80.4263 84.3569 80.3888C84.232 80.3388 84.207 80.4263 84.2445 80.6886C84.282 80.9259 84.2195 81.1508 84.0821 81.3007C83.9572 81.4381 83.8947 81.5505 83.9572 81.5505C84.0072 81.5505 83.9822 81.6254 83.9072 81.7129C83.8323 81.8128 83.7448 82.0751 83.7198 82.3125C83.6824 82.5498 83.6574 82.7871 83.6449 82.8621C83.6324 82.9246 83.5824 82.8746 83.52 82.7372C83.4201 82.5373 83.4076 82.5998 83.4201 82.987C83.4201 83.2618 83.3826 83.5866 83.3326 83.699C83.2826 83.8239 83.3076 84.0988 83.3826 84.3111C83.5575 84.8233 83.5699 84.7983 83.2077 84.7983C82.8954 84.7983 82.7955 84.9732 83.0203 85.1106C83.0828 85.148 83.1078 85.2605 83.0578 85.3604C83.0078 85.4978 83.0453 85.5228 83.1952 85.4728C83.3076 85.4353 83.3576 85.3479 83.3201 85.2854C83.2826 85.223 83.3076 85.173 83.3576 85.173C83.52 85.173 83.9072 85.6602 83.8822 85.8351C83.8697 85.9225 83.8697 86.1973 83.8822 86.4471C83.8947 86.8594 83.9322 86.9218 84.1945 86.9218C84.4444 86.9218 84.5193 87.0342 84.6942 87.5464C84.8066 87.8962 84.8691 88.2334 84.8191 88.3084C84.7816 88.3833 84.8691 88.3958 85.0814 88.3459C85.3188 88.2834 85.4062 88.3084 85.3937 88.4333C85.3687 88.5332 85.3687 88.7456 85.3937 88.9205C85.4062 89.2078 85.4187 89.2078 85.5186 88.9829C85.5936 88.8205 85.631 88.7955 85.631 88.9205C85.6435 89.0828 85.656 89.0828 85.7684 88.9205C85.8684 88.7706 85.8934 88.7706 85.9683 88.9579C86.0058 89.0704 86.0183 89.2827 85.9808 89.4201C85.9433 89.5575 85.9683 89.645 86.0308 89.595C86.0932 89.5575 86.1432 89.3702 86.1432 89.1578C86.1432 88.7456 86.4555 88.6581 86.6928 88.9954C86.7927 89.1203 87.0301 89.1953 87.3424 89.1953C87.6047 89.1953 87.7671 89.2203 87.6921 89.2577C87.5297 89.3077 87.5922 90.1571 87.7796 90.3445C87.8545 90.4194 87.892 90.4194 87.892 90.332C87.892 90.257 88.0044 90.2196 88.1668 90.2695C88.3792 90.3195 88.4166 90.2945 88.3542 90.1321C88.3042 89.9822 88.3417 89.9198 88.4666 89.9198C88.6165 89.9198 88.654 90.0197 88.6165 90.3445C88.579 90.6942 88.6165 90.7942 88.8164 90.8441C89.1037 90.9191 89.366 90.7442 89.1661 90.6193C89.0912 90.5818 89.0662 90.4319 89.1037 90.282C89.1661 90.0697 89.2286 90.0447 89.5034 90.1196C89.6783 90.1696 89.9531 90.2196 90.103 90.2321C90.2654 90.2446 90.4278 90.282 90.4652 90.332C90.5152 90.3695 90.7026 90.3695 90.9024 90.332C91.1773 90.282 91.3272 90.332 91.4895 90.5069C91.6644 90.7192 91.7269 90.7317 91.8643 90.5943C91.9517 90.4944 91.9892 90.357 91.9517 90.2945C91.9143 90.2196 91.9517 90.1696 92.0392 90.1696C92.2515 90.1696 92.6263 90.4194 92.4264 90.4194C92.3515 90.4194 92.2515 90.5319 92.2016 90.6568C92.1016 91.0065 91.7394 91.1065 91.552 90.8441C91.4021 90.6318 91.3896 90.6443 91.3896 90.8816C91.3896 91.0315 91.3396 91.1939 91.2647 91.2314C91.1148 91.3313 91.1023 91.7935 91.2522 91.7935C91.3147 91.7935 91.3896 91.6436 91.4271 91.4437C91.477 91.1939 91.577 91.1065 91.8143 91.094C91.9892 91.0815 92.1141 91.119 92.0766 91.1689C92.0392 91.2189 92.1016 91.2938 92.2016 91.3438C92.3639 91.4063 92.4389 91.2813 92.4139 91.0315C92.3889 90.9066 93.2009 90.7817 93.4382 90.8691C93.5506 90.9066 93.6381 91.0815 93.6381 91.2564C93.6381 91.4812 93.688 91.5562 93.8254 91.4937C93.9504 91.4562 94.0753 91.5562 94.2127 91.831C94.4001 92.2182 94.4001 92.2307 94.1752 91.9559L93.9504 91.6686L93.9379 92.0308C93.9254 92.3806 93.9379 92.3806 94.2876 92.2682C94.475 92.2057 94.6749 92.0933 94.7123 92.0308C94.7498 91.9559 94.8497 91.9684 94.9622 92.0558C95.0996 92.1682 95.1745 92.1682 95.3244 92.0433C95.5618 91.8435 95.8865 91.9684 95.8865 92.2557C95.8865 92.3931 95.924 92.4306 95.9865 92.3431C96.0364 92.2682 96.1614 92.1807 96.2738 92.1433C96.4362 92.0808 96.4736 92.1183 96.4237 92.3056C96.3862 92.4306 96.2988 92.543 96.2238 92.543C96.1614 92.543 96.1988 92.6554 96.3237 92.7928C96.611 93.1176 96.711 93.1051 96.8234 92.7553C96.8983 92.5055 96.9108 92.518 97.0358 92.9177C97.1732 93.3549 97.1732 93.3549 97.2731 93.0426C97.373 92.7553 97.448 92.7304 97.9226 92.7553C98.4348 92.7803 98.4348 92.7803 98.0351 92.6804C97.5354 92.543 97.4854 92.5055 97.5854 92.2557C97.6978 91.9434 98.0101 91.8934 98.0101 92.1807C98.0101 92.3181 98.0601 92.3931 98.135 92.3556C98.21 92.3056 98.3474 92.3431 98.4473 92.4181C98.5972 92.543 98.6347 92.543 98.6347 92.4181C98.6347 92.3056 98.7596 92.2807 99.0094 92.3431C99.2717 92.3931 99.3717 92.3681 99.3092 92.2807C99.2592 92.1932 99.3467 92.1682 99.5216 92.1932C99.7589 92.2182 99.8214 92.3056 99.8338 92.6054C99.8338 92.8053 99.8463 93.0676 99.8588 93.1676C99.9088 93.5298 100.121 93.0052 100.109 92.5805C100.084 92.0433 100.134 92.0183 100.558 92.2432C101.021 92.4805 101.083 92.4056 100.796 91.9684C100.571 91.6186 100.571 91.6186 100.821 91.7185C101.358 91.9434 101.67 91.9559 101.783 91.7435C101.945 91.4687 102.095 91.4937 102.182 91.8185C102.257 92.0933 102.27 92.0933 102.432 91.8809C102.544 91.731 102.632 91.7061 102.694 91.781C102.819 92.0059 103.032 91.9309 102.957 91.6936C102.894 91.4937 102.969 91.4812 103.731 91.4937C104.193 91.5187 104.78 91.4687 105.043 91.4063C105.43 91.3063 105.505 91.2439 105.443 91.0315C105.355 90.7567 105.53 90.7192 105.78 90.9566C106.005 91.1814 106.379 91.3063 106.379 91.1689C106.379 91.094 106.292 91.044 106.192 91.044C106.092 91.044 106.005 90.9316 106.005 90.7942C106.005 90.6568 106.042 90.5568 106.105 90.5818C106.267 90.6318 106.879 90.0822 106.879 89.8698C106.879 89.62 107.204 89.6075 107.304 89.8573C107.341 89.9573 107.454 90.0447 107.554 90.0447C107.666 90.0447 107.716 89.9697 107.678 89.8698C107.641 89.7574 107.691 89.7074 107.841 89.7074C107.966 89.7199 108.066 89.645 108.066 89.545C108.066 89.4451 107.978 89.3702 107.878 89.3951C107.741 89.4326 107.728 89.3951 107.828 89.2952C107.953 89.1703 108.203 89.0828 108.553 89.0579C108.603 89.0454 108.628 88.9579 108.578 88.858C108.54 88.7581 108.578 88.6831 108.665 88.7081C108.753 88.7206 108.803 88.6207 108.778 88.4833C108.753 88.3334 108.778 88.2834 108.84 88.3833C108.915 88.4833 109.053 88.4833 109.365 88.3459C109.602 88.2459 109.752 88.1335 109.715 88.096C109.677 88.0585 109.527 88.0835 109.39 88.171C109.215 88.2584 109.127 88.2584 109.127 88.171C109.127 88.1085 109.19 88.0461 109.265 88.0461C109.34 88.0461 109.377 87.9336 109.34 87.7962C109.265 87.5089 109.302 87.4964 109.64 87.6713C109.927 87.8337 109.952 87.7088 109.665 87.3965C109.49 87.1966 109.477 87.1717 109.665 87.1717C109.777 87.1717 109.889 87.2216 109.927 87.2841C110.052 87.4839 110.414 87.3465 110.452 87.1092C110.477 86.9843 110.514 86.7594 110.552 86.622C110.589 86.4721 110.601 86.3347 110.589 86.2973C110.539 86.1723 111.151 85.4228 111.289 85.4353C111.713 85.4853 111.788 85.4228 111.551 85.2355C111.326 85.0606 111.326 85.0356 111.526 84.8857C111.638 84.7983 111.776 84.5734 111.813 84.3861C111.863 84.1987 111.951 84.0238 112.001 83.9863C112.05 83.9613 112.075 83.774 112.05 83.5866C112.038 83.3992 112.075 83.1994 112.163 83.1494C112.3 83.062 112.338 81.538 112.188 81.3007C112.15 81.2382 112.175 80.9884 112.263 80.7635C112.388 80.4138 112.375 80.2889 112.175 79.9141C111.938 79.4519 111.926 79.4145 111.901 78.8898C111.888 78.6899 111.826 78.565 111.776 78.6025C111.713 78.64 111.676 78.8398 111.688 79.0397C111.701 79.2521 111.651 79.402 111.576 79.3895C111.501 79.377 111.426 79.4519 111.426 79.5519C111.413 79.6518 111.401 79.7892 111.388 79.8392C111.388 79.9016 111.301 79.8641 111.214 79.7767C111.039 79.6018 110.989 79.3895 111.001 78.7524C111.001 78.54 110.964 78.4276 110.914 78.4776C110.864 78.5276 110.814 78.64 110.814 78.7149C110.814 79.0147 110.564 78.9523 110.352 78.6025C109.989 78.0029 109.964 77.928 110.127 77.7406C110.239 77.6157 110.239 77.5532 110.139 77.5532C110.064 77.5532 110.002 77.6032 110.002 77.6781C110.002 77.7406 109.914 77.8031 109.815 77.8031C109.715 77.8031 109.627 77.7406 109.627 77.6781C109.627 77.6032 109.715 77.5157 109.815 77.4783C110.052 77.3783 110.064 77.0536 109.827 77.0536C109.727 77.0536 109.565 77.141 109.465 77.2409C109.327 77.3659 109.252 77.3783 109.227 77.2784C109.165 77.1035 108.628 77.0161 108.628 77.1785C108.628 77.3159 108.216 77.3534 108.091 77.216C108.041 77.1785 108.091 77.0036 108.191 76.8412C108.316 76.6538 108.328 76.5539 108.241 76.5539C108.166 76.5539 108.128 76.4665 108.166 76.3665C108.278 76.0792 108.028 76.0168 107.878 76.3041C107.703 76.6289 107.304 76.6289 107.216 76.2916C107.166 76.0917 107.091 76.0542 106.867 76.1167C106.629 76.1917 106.604 76.1667 106.654 75.8794C106.704 75.667 106.667 75.5546 106.554 75.5546C106.329 75.5546 106.217 75.7669 106.404 75.8294C106.492 75.8669 106.467 75.9168 106.329 75.9668C106.167 76.0293 106.092 75.9793 106.042 75.7919C105.992 75.617 105.942 75.5796 105.88 75.692C105.717 75.9418 105.393 75.7295 105.455 75.4047C105.48 75.2423 105.48 75.1923 105.43 75.2673C105.343 75.4547 105.005 75.4796 105.005 75.3048C105.005 75.2423 105.105 75.1299 105.23 75.0674C105.405 74.955 105.393 74.9425 105.105 74.93C104.855 74.93 104.78 74.98 104.83 75.1174C104.918 75.3297 104.78 75.3547 104.518 75.1923C104.431 75.1299 104.181 75.1299 103.994 75.1798C103.681 75.2798 103.606 75.2423 103.444 74.955C103.344 74.7676 103.269 74.6927 103.257 74.7676C103.257 74.9925 103.007 74.9675 103.007 74.7551C103.007 74.6427 102.919 74.6052 102.757 74.6427C102.619 74.6802 102.532 74.7551 102.569 74.8051C102.607 74.8676 102.582 74.9425 102.507 74.9925C102.432 75.0424 102.345 74.905 102.307 74.6927C102.245 74.4304 102.157 74.3054 101.995 74.3054C101.857 74.3054 101.77 74.3804 101.795 74.4553C101.82 74.6427 100.284 74.7177 100.059 74.5303C99.8963 74.4054 99.4841 74.5303 99.5715 74.6802C99.609 74.7426 99.584 74.8176 99.5216 74.8551C99.3717 74.955 99.0219 74.5303 98.8845 74.1056L98.7721 73.7433V74.1181ZM91.3896 75.5421C91.3896 75.617 91.3396 75.7045 91.2647 75.742C91.2022 75.7794 91.1398 75.7295 91.1398 75.6295C91.1398 75.5171 91.2022 75.4297 91.2647 75.4297C91.3396 75.4297 91.3896 75.4796 91.3896 75.5421ZM107.254 77.1785C107.254 77.2409 107.166 77.3034 107.054 77.3034C106.954 77.3034 106.904 77.2409 106.941 77.1785C106.979 77.1035 107.066 77.0536 107.141 77.0536C107.204 77.0536 107.254 77.1035 107.254 77.1785ZM109.252 77.8655C109.252 77.9654 109.202 78.0529 109.127 78.0529C109.065 78.0529 109.003 77.9654 109.003 77.8655C109.003 77.7656 109.065 77.6781 109.127 77.6781C109.202 77.6781 109.252 77.7656 109.252 77.8655ZM109.815 78.1778C109.852 78.2403 109.802 78.3027 109.69 78.3027C109.577 78.3027 109.527 78.2403 109.565 78.1778C109.602 78.1028 109.665 78.0529 109.69 78.0529C109.715 78.0529 109.777 78.1028 109.815 78.1778ZM111.001 80.064C111.001 80.1265 110.951 80.1764 110.876 80.1764C110.814 80.1764 110.751 80.089 110.751 79.9766C110.751 79.8766 110.814 79.8267 110.876 79.8641C110.951 79.9016 111.001 79.9891 111.001 80.064ZM112.25 80.5012C112.25 80.7136 111.976 80.6761 111.901 80.4512C111.876 80.3638 111.938 80.3013 112.05 80.3013C112.163 80.3013 112.25 80.3888 112.25 80.5012ZM84.2695 82.0502C84.2695 82.1126 84.2445 82.1751 84.2195 82.1751C84.182 82.1751 84.1196 82.1126 84.0821 82.0502C84.0446 81.9752 84.0696 81.9252 84.1321 81.9252C84.207 81.9252 84.2695 81.9752 84.2695 82.0502ZM83.9322 82.9246C83.8947 83.0745 83.8323 83.1619 83.7948 83.1244C83.7323 83.0495 83.8573 82.6747 83.9447 82.6747C83.9697 82.6747 83.9697 82.7871 83.9322 82.9246ZM83.6074 84.3236C83.5699 84.4235 83.5325 84.3861 83.5325 84.2487C83.52 84.1112 83.5575 84.0363 83.5949 84.0863C83.6324 84.1237 83.6449 84.2362 83.6074 84.3236ZM93.4632 90.0072C93.4757 90.1446 93.5132 90.3195 93.5631 90.4069C93.6256 90.4944 93.5506 90.5444 93.4007 90.5444C93.1884 90.5444 93.1384 90.4694 93.1384 90.0947C93.1384 89.62 93.4382 89.5325 93.4632 90.0072ZM94.3126 90.2321C94.2626 90.332 94.2127 90.4194 94.1877 90.4194C94.1627 90.4194 94.1377 90.332 94.1377 90.2321C94.1377 90.1321 94.1877 90.0447 94.2626 90.0447C94.3251 90.0447 94.3501 90.1321 94.3126 90.2321ZM105.98 90.2071C106.055 90.1696 106.13 90.2071 106.13 90.2945C106.13 90.3695 106.08 90.3945 106.005 90.357C105.93 90.3195 105.88 90.4069 105.88 90.5693L105.867 90.8566L105.63 90.5568C105.492 90.3945 105.38 90.3445 105.38 90.4319C105.38 90.5194 105.355 90.5568 105.318 90.5194C105.28 90.4819 105.28 90.3695 105.33 90.257C105.38 90.1071 105.467 90.0822 105.605 90.1571C105.73 90.2071 105.892 90.2321 105.98 90.2071ZM103.132 90.5444C103.132 90.6068 103.069 90.6693 102.994 90.6693C102.932 90.6693 102.907 90.6068 102.944 90.5444C102.982 90.4694 103.044 90.4194 103.082 90.4194C103.107 90.4194 103.132 90.4694 103.132 90.5444ZM98.1975 91.2938C98.2349 91.3563 98.21 91.4188 98.1475 91.4188C98.0725 91.4188 98.0101 91.3563 98.0101 91.2938C98.0101 91.2189 98.0351 91.1689 98.0601 91.1689C98.0975 91.1689 98.16 91.2189 98.1975 91.2938Z" fill="#F4F1E9"/>
<path d="M41.7986 74.3179C41.7986 74.3804 41.861 74.4054 41.9235 74.3679C41.9984 74.3304 42.0484 74.268 42.0484 74.2305C42.0484 74.2055 41.9984 74.1805 41.9235 74.1805C41.861 74.1805 41.7986 74.243 41.7986 74.3179Z" fill="#F4F1E9"/>
<path d="M96.611 74.3304C96.6735 74.3929 96.8109 74.4303 96.8983 74.4054C96.9983 74.3679 96.9358 74.3179 96.7734 74.2679C96.5611 74.218 96.5111 74.2305 96.611 74.3304Z" fill="#F4F1E9"/>
<path d="M100.509 74.2305C100.509 74.2555 100.596 74.3054 100.696 74.3554C100.796 74.3929 100.883 74.3679 100.883 74.3054C100.883 74.2305 100.796 74.1805 100.696 74.1805C100.596 74.1805 100.509 74.2055 100.509 74.2305Z" fill="#F4F1E9"/>
<path d="M19.2515 74.4304C19.214 74.4928 19.239 74.5553 19.3015 74.5553C19.3764 74.5553 19.4389 74.4928 19.4389 74.4304C19.4389 74.3554 19.4139 74.3054 19.3889 74.3054C19.3514 74.3054 19.289 74.3554 19.2515 74.4304Z" fill="#F4F1E9"/>
<path d="M42.9229 75.617C42.9229 75.717 42.9978 75.8044 43.0977 75.8044C43.1977 75.8044 43.2976 75.717 43.3476 75.617C43.3975 75.4921 43.3351 75.4297 43.1727 75.4297C43.0353 75.4297 42.9229 75.5171 42.9229 75.617Z" fill="#F4F1E9"/>
<path d="M108.653 76.6788C108.828 76.9536 108.953 76.9911 109.053 76.8162C109.09 76.7662 108.978 76.6538 108.815 76.5789C108.528 76.4415 108.515 76.454 108.653 76.6788Z" fill="#F4F1E9"/>
<path d="M86.593 76.6538C86.5555 76.7163 86.6055 76.7663 86.7054 76.7663C86.8054 76.7663 86.8553 76.7163 86.8179 76.6538C86.7804 76.6039 86.7304 76.5539 86.7054 76.5539C86.6804 76.5539 86.6305 76.6039 86.593 76.6538Z" fill="#F4F1E9"/>
<path d="M43.2976 78.2278C43.2976 78.4026 43.3476 78.5525 43.3975 78.5525C43.5349 78.5525 43.5474 78.0654 43.41 77.9904C43.3476 77.9405 43.2976 78.0529 43.2976 78.2278Z" fill="#F4F1E9"/>
<path d="M85.731 78.1403C85.681 78.1778 85.6436 78.2777 85.6436 78.3527C85.6436 78.4276 85.706 78.4151 85.7935 78.3277C85.8684 78.2527 85.9059 78.1528 85.8809 78.1153C85.8434 78.0779 85.7685 78.0904 85.731 78.1403Z" fill="#F4F1E9"/>
<path d="M84.2071 79.4269C84.1696 79.4894 84.1946 79.5518 84.257 79.5518C84.332 79.5518 84.3944 79.4894 84.3944 79.4269C84.3944 79.352 84.3694 79.302 84.3445 79.302C84.307 79.302 84.2445 79.352 84.2071 79.4269Z" fill="#F4F1E9"/>
<path d="M16.1535 80.4387C16.2035 80.6011 16.2535 80.6636 16.291 80.5637C16.3159 80.4762 16.2785 80.3388 16.216 80.2764C16.1161 80.1764 16.1036 80.2264 16.1535 80.4387Z" fill="#F4F1E9"/>
<path d="M112.688 81.4256C112.725 81.488 112.787 81.5505 112.825 81.5505C112.85 81.5505 112.875 81.488 112.875 81.4256C112.875 81.3506 112.812 81.3006 112.737 81.3006C112.675 81.3006 112.65 81.3506 112.688 81.4256Z" fill="#F4F1E9"/>
<path d="M83.0954 84.3361C83.1329 84.461 83.2079 84.5235 83.2453 84.486C83.2828 84.4485 83.2453 84.3486 83.1579 84.2611C83.033 84.1487 83.0205 84.1612 83.0954 84.3361Z" fill="#F4F1E9"/>
<path d="M18.2896 84.9981C18.3645 85.0356 18.4145 85.123 18.3645 85.1855C18.3271 85.248 18.3895 85.2979 18.502 85.2979C18.7893 85.2979 18.6643 84.9981 18.3645 84.9607C18.2396 84.9357 18.2022 84.9607 18.2896 84.9981Z" fill="#F4F1E9"/>
<path d="M83.033 85.8725C83.033 86.01 83.0704 86.0474 83.1079 85.9475C83.1454 85.8601 83.1329 85.7476 83.0954 85.7102C83.058 85.6602 83.0205 85.7351 83.033 85.8725Z" fill="#F4F1E9"/>
<path d="M38.5508 85.9225C38.5508 85.985 38.6132 86.0474 38.6882 86.0474C38.7506 86.0474 38.7756 85.985 38.7382 85.9225C38.7007 85.8476 38.6382 85.7976 38.6007 85.7976C38.5758 85.7976 38.5508 85.8476 38.5508 85.9225Z" fill="#F4F1E9"/>
<path d="M83.0205 86.4721C83.0205 86.5846 83.083 86.672 83.1454 86.672C83.2204 86.672 83.2703 86.622 83.2703 86.5596C83.2703 86.4846 83.2204 86.3972 83.1454 86.3597C83.083 86.3222 83.0205 86.3722 83.0205 86.4721Z" fill="#F4F1E9"/>
<path d="M36.0024 86.7095C36.0399 86.8344 36.1149 86.8969 36.1523 86.8594C36.1898 86.8219 36.1523 86.722 36.0649 86.6345C35.94 86.5221 35.9275 86.5346 36.0024 86.7095Z" fill="#F4F1E9"/>
<path d="M34.9282 87.1717C34.9282 87.2341 34.9907 87.2966 35.0656 87.2966C35.1281 87.2966 35.1531 87.2341 35.1156 87.1717C35.0781 87.0967 35.0157 87.0467 34.9782 87.0467C34.9532 87.0467 34.9282 87.0967 34.9282 87.1717Z" fill="#F4F1E9"/>
<path d="M84.2195 87.5089C84.1445 87.6838 84.157 87.6963 84.2819 87.5839C84.3694 87.4964 84.4068 87.3965 84.3694 87.359C84.3319 87.3215 84.2569 87.384 84.2195 87.5089Z" fill="#F4F1E9"/>
<path d="M30.1815 87.6713C30.0816 87.7338 30.0441 87.8212 30.0941 87.8837C30.1565 87.9336 30.244 87.8962 30.3064 87.8087C30.3814 87.6713 30.4188 87.6838 30.4688 87.8712C30.5188 88.071 30.5313 88.071 30.5437 87.8212C30.5562 87.5214 30.4688 87.4839 30.1815 87.6713Z" fill="#F4F1E9"/>
<path d="M23.5735 87.8712C23.5735 88.0086 23.611 88.0461 23.6484 87.9461C23.6859 87.8587 23.6734 87.7463 23.636 87.7088C23.5985 87.6588 23.561 87.7338 23.5735 87.8712Z" fill="#F4F1E9"/>
<path d="M28.1829 88.0461C28.1829 88.1085 28.2703 88.1335 28.3702 88.096C28.4702 88.0461 28.5576 87.9961 28.5576 87.9711C28.5576 87.9461 28.4702 87.9211 28.3702 87.9211C28.2703 87.9211 28.1829 87.9711 28.1829 88.0461Z" fill="#F4F1E9"/>
<path d="M86.4681 89.3951C86.543 89.4451 86.6429 89.595 86.6804 89.7199C86.8053 90.0322 86.9427 89.8823 86.8303 89.5575C86.7928 89.4076 86.6554 89.2952 86.543 89.2952C86.4181 89.2952 86.3806 89.3327 86.4681 89.3951Z" fill="#F4F1E9"/>
<path d="M106.754 90.4569C106.754 90.5693 106.804 90.6818 106.867 90.7192C106.929 90.7692 106.967 90.7067 106.954 90.6068C106.917 90.3445 106.754 90.2196 106.754 90.4569Z" fill="#F4F1E9"/>
<path d="M88.2293 90.7942C88.1919 90.9441 88.2293 91.044 88.3293 91.044C88.4292 91.044 88.4667 90.9441 88.4292 90.7942C88.3917 90.6568 88.3418 90.5443 88.3293 90.5443C88.3168 90.5443 88.2668 90.6568 88.2293 90.7942Z" fill="#F4F1E9"/>
<path d="M106.23 90.8816C106.317 90.9191 106.429 90.9066 106.467 90.8691C106.517 90.8316 106.442 90.7942 106.305 90.8067C106.167 90.8067 106.13 90.8441 106.23 90.8816Z" fill="#F4F1E9"/>
<path d="M92.2267 91.756C92.3641 92.1433 92.4015 92.1807 92.5514 92.0683C92.6389 91.9934 92.8137 91.9184 92.9512 91.8809C93.1885 91.831 93.176 91.8185 92.9262 91.806C92.7763 91.806 92.6139 91.731 92.5764 91.6686C92.439 91.4437 92.1392 91.5312 92.2267 91.756Z" fill="#F4F1E9"/>
<path d="M93.6006 91.8809C93.4757 91.9934 93.4882 92.1682 93.6131 92.1682C93.6756 92.1682 93.7255 92.0808 93.7255 91.9809C93.7255 91.7685 93.713 91.756 93.6006 91.8809Z" fill="#F4F1E9"/>
<path d="M93.076 92.543C93.0386 92.6054 93.076 92.6679 93.1635 92.6679C93.2759 92.6679 93.2759 92.7054 93.1385 92.7928C92.9761 92.8927 92.9886 92.9177 93.176 92.9177C93.2884 92.9177 93.3883 92.8428 93.3883 92.7428C93.3883 92.5055 93.176 92.3806 93.076 92.543Z" fill="#F4F1E9"/>
<path d="M101.258 92.9927C101.258 93.0926 101.32 93.1426 101.383 93.1051C101.458 93.0551 101.483 92.9677 101.445 92.9052C101.333 92.7304 101.258 92.7678 101.258 92.9927Z" fill="#F4F1E9"/>
<path d="M95.4495 93.0426C95.412 93.1176 95.4619 93.1301 95.5619 93.0926C95.7867 93.0052 95.8242 92.9177 95.6493 92.9177C95.5744 92.9177 95.4869 92.9677 95.4495 93.0426Z" fill="#F4F1E9"/>
<path d="M93.8379 93.23C93.8004 93.3299 93.8254 93.4174 93.8879 93.4174C93.9628 93.4174 94.0128 93.3299 94.0128 93.23C94.0128 93.1301 93.9878 93.0426 93.9628 93.0426C93.9379 93.0426 93.8879 93.1301 93.8379 93.23Z" fill="#F4F1E9"/>
<path d="M257.137 57.7166H237.215C236.647 54.4496 235.599 51.5554 234.072 49.0341C232.545 46.4773 230.646 44.3111 228.373 42.5355C226.1 40.7599 223.508 39.4283 220.596 38.5405C217.719 37.6172 214.612 37.1555 211.274 37.1555C205.344 37.1555 200.088 38.647 195.507 41.63C190.926 44.5774 187.339 48.9098 184.747 54.6271C182.155 60.3089 180.859 67.2514 180.859 75.4545C180.859 83.7997 182.155 90.831 184.747 96.5483C187.375 102.23 190.962 106.527 195.507 109.439C200.088 112.315 205.326 113.754 211.221 113.754C214.488 113.754 217.542 113.327 220.383 112.475C223.259 111.587 225.834 110.291 228.107 108.587C230.415 106.882 232.35 104.787 233.913 102.301C235.511 99.8153 236.612 96.9744 237.215 93.7784L257.137 93.8849C256.391 99.0696 254.776 103.935 252.29 108.48C249.839 113.026 246.626 117.038 242.648 120.518C238.671 123.963 234.019 126.662 228.692 128.615C223.366 130.533 217.453 131.491 210.955 131.491C201.366 131.491 192.808 129.272 185.28 124.833C177.751 120.394 171.821 113.984 167.489 105.604C163.156 97.223 160.99 87.1733 160.99 75.4545C160.99 63.7003 163.174 53.6506 167.542 45.3054C171.91 36.9247 177.858 30.5149 185.386 26.076C192.915 21.6371 201.438 19.4176 210.955 19.4176C217.027 19.4176 222.673 20.2699 227.893 21.9744C233.114 23.679 237.766 26.1825 241.849 29.4851C245.933 32.7521 249.289 36.7649 251.917 41.5234C254.58 46.2464 256.32 51.6442 257.137 57.7166ZM290.665 82.0597V130H271.382V20.9091H290.239V62.0845H291.198C293.115 57.468 296.08 53.8281 300.093 51.1648C304.142 48.4659 309.291 47.1165 315.541 47.1165C321.222 47.1165 326.176 48.3061 330.402 50.6854C334.628 53.0646 337.895 56.5447 340.203 61.1257C342.547 65.7067 343.719 71.2997 343.719 77.9048V130H324.436V80.8878C324.436 75.3835 323.016 71.1044 320.175 68.0504C317.369 64.9609 313.428 63.4162 308.35 63.4162C304.941 63.4162 301.887 64.1619 299.188 65.6534C296.524 67.1094 294.429 69.2223 292.902 71.9922C291.411 74.7621 290.665 78.1179 290.665 82.0597ZM383.919 131.651C378.734 131.651 374.064 130.728 369.909 128.881C365.79 126.999 362.523 124.229 360.108 120.572C357.729 116.914 356.539 112.404 356.539 107.042C356.539 102.425 357.392 98.608 359.096 95.5895C360.801 92.571 363.127 90.1562 366.074 88.3452C369.021 86.5341 372.342 85.1669 376.035 84.2436C379.764 83.2848 383.617 82.5923 387.594 82.1662C392.388 81.669 396.276 81.2251 399.259 80.8345C402.242 80.4084 404.409 79.7692 405.758 78.9169C407.143 78.0291 407.835 76.6619 407.835 74.8153V74.4957C407.835 70.483 406.646 67.3757 404.267 65.174C401.887 62.9723 398.46 61.8714 393.986 61.8714C389.263 61.8714 385.517 62.9013 382.747 64.9609C380.012 67.0206 378.166 69.4531 377.207 72.2585L359.203 69.7017C360.623 64.7301 362.967 60.5753 366.234 57.2372C369.501 53.8636 373.496 51.3423 378.219 49.6733C382.942 47.9688 388.162 47.1165 393.879 47.1165C397.821 47.1165 401.745 47.5781 405.651 48.5014C409.558 49.4247 413.127 50.9517 416.358 53.0824C419.59 55.1776 422.182 58.0362 424.135 61.6584C426.124 65.2805 427.118 69.8082 427.118 75.2415V130H408.581V118.761H407.942C406.77 121.033 405.119 123.164 402.988 125.153C400.893 127.106 398.247 128.686 395.051 129.893C391.891 131.065 388.18 131.651 383.919 131.651ZM388.926 117.482C392.796 117.482 396.152 116.719 398.993 115.192C401.834 113.629 404.018 111.57 405.545 109.013C407.107 106.456 407.889 103.668 407.889 100.65V91.0085C407.285 91.5057 406.255 91.9673 404.799 92.3935C403.379 92.8196 401.781 93.1925 400.005 93.5121C398.23 93.8317 396.472 94.1158 394.732 94.3643C392.992 94.6129 391.482 94.826 390.204 95.0035C387.328 95.3942 384.753 96.0334 382.48 96.9212C380.208 97.8089 378.414 99.0518 377.1 100.65C375.786 102.212 375.129 104.237 375.129 106.722C375.129 110.273 376.426 112.955 379.018 114.766C381.61 116.577 384.913 117.482 388.926 117.482ZM443.507 130V48.1818H462.204V61.8182H463.056C464.548 57.0952 467.105 53.4553 470.727 50.8984C474.384 48.3061 478.557 47.0099 483.244 47.0099C484.31 47.0099 485.499 47.0632 486.813 47.1697C488.163 47.2408 489.281 47.3651 490.169 47.5426V65.2805C489.352 64.9964 488.056 64.7479 486.281 64.5348C484.541 64.2862 482.854 64.1619 481.22 64.1619C477.705 64.1619 474.544 64.9254 471.739 66.4524C468.969 67.9439 466.785 70.0213 465.187 72.6847C463.589 75.348 462.79 78.4197 462.79 81.8999V130H443.507ZM519.263 20.9091V130H499.98V20.9091H519.263ZM536.091 130V48.1818H555.374V130H536.091ZM545.786 36.5696C542.732 36.5696 540.104 35.5575 537.902 33.5334C535.701 31.4737 534.6 29.0057 534.6 26.1293C534.6 23.2173 535.701 20.7493 537.902 18.7251C540.104 16.6655 542.732 15.6357 545.786 15.6357C548.875 15.6357 551.503 16.6655 553.669 18.7251C555.871 20.7493 556.972 23.2173 556.972 26.1293C556.972 29.0057 555.871 31.4737 553.669 33.5334C551.503 35.5575 548.875 36.5696 545.786 36.5696ZM608.424 131.598C600.221 131.598 593.137 129.893 587.171 126.484C581.24 123.04 576.677 118.175 573.481 111.889C570.285 105.568 568.687 98.1286 568.687 89.5703C568.687 81.1541 570.285 73.7678 573.481 67.4112C576.713 61.0192 581.222 56.0476 587.011 52.4964C592.799 48.9098 599.6 47.1165 607.412 47.1165C612.455 47.1165 617.213 47.9332 621.688 49.5668C626.198 51.1648 630.175 53.6506 633.619 57.0241C637.1 60.3977 639.834 64.6946 641.823 69.9148C643.811 75.0994 644.806 81.2784 644.806 88.4517V94.3643H577.742V81.3672H626.322C626.286 77.674 625.487 74.3892 623.925 71.5128C622.362 68.6009 620.178 66.3104 617.373 64.6413C614.603 62.9723 611.372 62.1378 607.678 62.1378C603.737 62.1378 600.274 63.0966 597.291 65.0142C594.308 66.8963 591.982 69.3821 590.313 72.4716C588.68 75.5256 587.845 78.8814 587.81 82.5391V93.8849C587.81 98.6435 588.68 102.727 590.42 106.136C592.16 109.51 594.593 112.102 597.718 113.913C600.843 115.689 604.5 116.577 608.691 116.577C611.496 116.577 614.035 116.186 616.308 115.405C618.58 114.588 620.551 113.398 622.22 111.836C623.889 110.273 625.15 108.338 626.002 106.03L644.007 108.054C642.87 112.812 640.704 116.967 637.508 120.518C634.347 124.034 630.299 126.768 625.363 128.722C620.427 130.639 614.781 131.598 608.424 131.598Z" fill="black"/>
</svg>
